<svg width="281" height="33" fill="none" xmlns="http://www.w3.org/2000/svg"><path d="M3.991 28.078a5.902 5.902 0 0 1-1.95-.325c-.615-.217-1.092-.503-1.43-.858l.377-.741c.33.33.767.598 1.313.806.546.2 1.11.299 1.69.299.815 0 1.426-.147 1.833-.442.407-.303.611-.693.611-1.17 0-.364-.113-.654-.338-.871a2.108 2.108 0 0 0-.806-.494 11.9 11.9 0 0 0-1.339-.39 15.157 15.157 0 0 1-1.638-.494 2.808 2.808 0 0 1-1.053-.741c-.286-.33-.429-.776-.429-1.339 0-.46.121-.875.364-1.248.243-.381.615-.685 1.118-.91.503-.225 1.127-.338 1.872-.338.52 0 1.027.074 1.521.221.503.139.936.334 1.3.585l-.325.767a4.33 4.33 0 0 0-1.222-.559 4.42 4.42 0 0 0-1.274-.195c-.797 0-1.4.156-1.807.468-.399.303-.598.698-.598 1.183 0 .364.108.659.325.884.225.217.503.386.832.507.338.113.789.238 1.352.377a12.3 12.3 0 0 1 1.612.494c.416.156.767.399 1.053.728.286.32.429.758.429 1.313 0 .46-.126.88-.377 1.261-.243.373-.62.672-1.131.897-.511.217-1.14.325-1.885.325Zm8.895-.494c-.173.156-.39.277-.65.364a2.66 2.66 0 0 1-.793.117c-.641 0-1.135-.173-1.482-.52-.347-.347-.52-.836-.52-1.469v-4.134H8.22v-.78h1.222v-1.495h.923v1.495h2.08v.78h-2.08v4.082c0 .407.1.72.299.936.208.208.503.312.884.312.19 0 .373-.03.546-.091.182-.06.338-.147.468-.26l.325.663Zm7.842-6.422V28h-.884v-1.248a2.577 2.577 0 0 1-1 .975c-.425.225-.91.338-1.457.338-.892 0-1.599-.247-2.119-.741-.511-.503-.767-1.235-.767-2.197v-3.965h.923v3.874c0 .72.178 1.265.533 1.638.356.373.863.559 1.521.559.72 0 1.287-.217 1.703-.65.416-.442.624-1.053.624-1.833v-3.588h.923Zm8.825-2.808V28h-.884v-1.352c-.277.46-.645.81-1.105 1.053-.45.243-.962.364-1.534.364a3.47 3.47 0 0 1-1.742-.442 3.159 3.159 0 0 1-1.222-1.235c-.294-.529-.442-1.131-.442-1.807 0-.676.148-1.278.442-1.807a3.07 3.07 0 0 1 1.222-1.222 3.47 3.47 0 0 1 1.742-.442c.555 0 1.053.117 1.495.351.451.225.82.559 1.105 1.001v-4.108h.923Zm-3.445 8.892c.477 0 .906-.108 1.287-.325.39-.225.694-.542.91-.949.226-.407.338-.871.338-1.391s-.112-.984-.338-1.391a2.257 2.257 0 0 0-.91-.936 2.482 2.482 0 0 0-1.287-.338c-.485 0-.923.113-1.313.338a2.366 2.366 0 0 0-.91.936 2.916 2.916 0 0 0-.325 1.391c0 .52.109.984.325 1.391.226.407.529.724.91.949.39.217.828.325 1.313.325Zm6.016-6.084h.923V28h-.923v-6.838Zm.468-1.495a.654.654 0 0 1-.481-.195.638.638 0 0 1-.195-.468c0-.173.065-.325.195-.455s.29-.195.48-.195c.192 0 .352.065.482.195.13.121.195.269.195.442 0 .19-.065.351-.195.481a.654.654 0 0 1-.481.195Zm5.818 8.398a3.595 3.595 0 0 1-1.78-.442 3.319 3.319 0 0 1-1.249-1.248c-.303-.529-.455-1.127-.455-1.794s.152-1.265.455-1.794c.303-.529.72-.94 1.248-1.235a3.595 3.595 0 0 1 1.781-.442c.659 0 1.253.147 1.781.442.529.295.94.706 1.235 1.235.303.529.455 1.127.455 1.794s-.151 1.265-.455 1.794a3.223 3.223 0 0 1-1.235 1.248 3.595 3.595 0 0 1-1.78.442Zm0-.819c.486 0 .919-.108 1.3-.325.39-.225.694-.542.91-.949.217-.407.325-.871.325-1.391s-.108-.984-.325-1.391a2.257 2.257 0 0 0-.91-.936 2.507 2.507 0 0 0-1.3-.338c-.485 0-.923.113-1.313.338a2.367 2.367 0 0 0-.91.936 2.917 2.917 0 0 0-.325 1.391c0 .52.108.984.325 1.391.226.407.529.724.91.949.39.217.828.325 1.313.325ZM59.856 18.9 56.788 28h-1.014l-2.665-7.761L50.43 28H49.43l-3.068-9.1h.988l2.626 7.826 2.717-7.826h.897l2.678 7.865 2.665-7.865h.923Zm7.002 5.967h-5.72c.052.71.325 1.287.82 1.729.493.433 1.117.65 1.871.65.425 0 .815-.074 1.17-.221.356-.156.663-.381.923-.676l.52.598a2.92 2.92 0 0 1-1.144.832c-.45.19-.949.286-1.495.286-.702 0-1.326-.147-1.872-.442a3.291 3.291 0 0 1-1.26-1.248c-.304-.529-.456-1.127-.456-1.794s.143-1.265.43-1.794c.294-.529.692-.94 1.195-1.235a3.374 3.374 0 0 1 1.716-.442c.633 0 1.2.147 1.703.442.503.295.897.706 1.183 1.235.286.52.43 1.118.43 1.794l-.014.286Zm-3.302-2.964c-.658 0-1.213.212-1.664.637-.442.416-.693.962-.754 1.638h4.85c-.061-.676-.317-1.222-.768-1.638-.442-.425-.996-.637-1.664-.637Zm8.717-.793a3.47 3.47 0 0 1 1.742.442c.52.286.927.693 1.222 1.222.295.529.442 1.131.442 1.807 0 .676-.147 1.278-.442 1.807a3.16 3.16 0 0 1-1.222 1.235 3.47 3.47 0 0 1-1.742.442 3.26 3.26 0 0 1-1.547-.364 2.828 2.828 0 0 1-1.092-1.053V28h-.884v-9.646h.923v4.108c.286-.442.65-.776 1.092-1.001.45-.234.953-.351 1.508-.351Zm-.065 6.136c.477 0 .91-.108 1.3-.325.39-.225.693-.542.91-.949.225-.407.338-.871.338-1.391s-.113-.984-.338-1.391a2.257 2.257 0 0 0-.91-.936 2.552 2.552 0 0 0-1.3-.338c-.485 0-.923.113-1.313.338a2.367 2.367 0 0 0-.91.936 2.916 2.916 0 0 0-.325 1.391c0 .52.108.984.325 1.391.225.407.529.724.91.949.39.217.828.325 1.313.325ZM87.206 18.9V28h-.923v-7.28l-3.575 6.123h-.455l-3.575-6.084V28h-.923v-9.1h.793l3.952 6.747 3.913-6.747h.793Zm5.162 2.21c.893 0 1.578.225 2.055.676.476.442.715 1.1.715 1.976V28h-.885v-1.066a2.11 2.11 0 0 1-.922.832c-.4.2-.876.299-1.43.299-.763 0-1.37-.182-1.82-.546-.451-.364-.677-.845-.677-1.443 0-.58.209-1.049.624-1.404.425-.355 1.097-.533 2.015-.533h2.171v-.416c0-.59-.164-1.036-.493-1.339-.33-.312-.81-.468-1.444-.468-.433 0-.849.074-1.248.221a3.058 3.058 0 0 0-1.026.585l-.416-.689c.346-.295.762-.52 1.248-.676a4.74 4.74 0 0 1 1.534-.247Zm-.325 6.227c.52 0 .967-.117 1.34-.351.372-.243.65-.59.832-1.04v-1.118H92.07c-1.17 0-1.755.407-1.755 1.222 0 .399.151.715.454.949.304.225.728.338 1.274.338Zm7.434.728a5.45 5.45 0 0 1-1.599-.234c-.502-.165-.897-.368-1.183-.611l.416-.728c.286.225.646.412 1.08.559.433.139.883.208 1.351.208.624 0 1.084-.095 1.378-.286a.942.942 0 0 0 .455-.832c0-.251-.082-.446-.247-.585a1.52 1.52 0 0 0-.624-.325 7.84 7.84 0 0 0-1-.221 12.659 12.659 0 0 1-1.34-.312 2.068 2.068 0 0 1-.87-.559c-.235-.26-.352-.62-.352-1.079 0-.572.239-1.04.715-1.404.477-.364 1.14-.546 1.99-.546.441 0 .883.06 1.325.182.442.113.806.264 1.092.455l-.403.741c-.563-.39-1.235-.585-2.015-.585-.589 0-1.035.104-1.339.312-.294.208-.442.481-.442.819 0 .26.083.468.247.624.174.156.386.273.637.351.252.07.598.143 1.04.221.546.104.984.208 1.313.312.33.104.611.282.845.533.234.251.351.598.351 1.04 0 .598-.251 1.075-.754 1.43-.494.347-1.183.52-2.067.52Zm8.129-.481c-.174.156-.39.277-.65.364a2.665 2.665 0 0 1-.793.117c-.642 0-1.136-.173-1.482-.52-.347-.347-.52-.836-.52-1.469v-4.134h-1.222v-.78h1.222v-1.495h.923v1.495h2.08v.78h-2.08v4.082c0 .407.099.72.299.936.208.208.502.312.884.312.19 0 .372-.03.546-.091.182-.06.338-.147.468-.26l.325.663Zm7.393-2.717h-5.72c.052.71.325 1.287.819 1.729.494.433 1.118.65 1.872.65a3.03 3.03 0 0 0 1.17-.221c.355-.156.663-.381.923-.676l.52.598a2.926 2.926 0 0 1-1.144.832 3.8 3.8 0 0 1-1.495.286c-.702 0-1.326-.147-1.872-.442a3.284 3.284 0 0 1-1.261-1.248c-.304-.529-.455-1.127-.455-1.794s.143-1.265.429-1.794c.294-.529.693-.94 1.196-1.235a3.372 3.372 0 0 1 1.716-.442c.632 0 1.2.147 1.703.442.502.295.897.706 1.183 1.235.286.52.429 1.118.429 1.794l-.013.286Zm-3.302-2.964c-.659 0-1.214.212-1.664.637-.442.416-.694.962-.754 1.638h4.849c-.061-.676-.317-1.222-.767-1.638-.442-.425-.997-.637-1.664-.637Zm6.078.598a2.24 2.24 0 0 1 .962-1.04c.433-.234.966-.351 1.599-.351v.897l-.221-.013c-.72 0-1.283.221-1.69.663-.408.442-.611 1.062-.611 1.859V28h-.923v-6.838h.884v1.339Zm4.31 4.147c.2 0 .364.07.494.208a.67.67 0 0 1 .195.494c0 .104-.017.217-.052.338-.026.121-.069.26-.13.416l-.546 1.794h-.624l.442-1.885a.67.67 0 0 1-.338-.234.723.723 0 0 1-.13-.429c0-.2.065-.364.195-.494a.648.648 0 0 1 .494-.208Zm11.657.52V28h-6.383v-.663l3.783-3.705c.476-.468.797-.871.962-1.209.173-.347.26-.693.26-1.04 0-.537-.187-.953-.559-1.248-.364-.303-.889-.455-1.573-.455-1.066 0-1.894.338-2.483 1.014l-.663-.572a3.497 3.497 0 0 1 1.352-.962c.554-.225 1.178-.338 1.872-.338.927 0 1.659.221 2.197.663.546.433.819 1.031.819 1.794 0 .468-.104.919-.312 1.352-.208.433-.603.932-1.183 1.495l-3.094 3.042h5.005Zm4.75.91c-.702 0-1.33-.186-1.885-.559-.546-.373-.975-.906-1.287-1.599-.303-.702-.455-1.525-.455-2.47 0-.945.152-1.764.455-2.457.312-.702.741-1.24 1.287-1.612a3.303 3.303 0 0 1 1.885-.559c.702 0 1.326.186 1.872.559.555.373.988.91 1.3 1.612.312.693.468 1.512.468 2.457 0 .945-.156 1.768-.468 2.47-.312.693-.745 1.226-1.3 1.599a3.241 3.241 0 0 1-1.872.559Zm0-.858c.529 0 .993-.147 1.391-.442.408-.295.724-.724.949-1.287.226-.563.338-1.244.338-2.041 0-.797-.112-1.478-.338-2.041-.225-.563-.541-.992-.949-1.287a2.275 2.275 0 0 0-1.391-.442c-.528 0-.996.147-1.404.442-.398.295-.71.724-.936 1.287-.225.563-.338 1.244-.338 2.041 0 .797.113 1.478.338 2.041.226.563.538.992.936 1.287.408.295.876.442 1.404.442Zm11.169-.052V28h-6.383v-.663l3.783-3.705c.477-.468.798-.871.962-1.209.174-.347.26-.693.26-1.04 0-.537-.186-.953-.559-1.248-.364-.303-.888-.455-1.573-.455-1.066 0-1.893.338-2.483 1.014l-.663-.572a3.505 3.505 0 0 1 1.352-.962c.555-.225 1.179-.338 1.872-.338.928 0 1.66.221 2.197.663.546.433.819 1.031.819 1.794 0 .468-.104.919-.312 1.352-.208.433-.602.932-1.183 1.495l-3.094 3.042h5.005Zm7.389 0V28h-6.383v-.663l3.783-3.705c.477-.468.797-.871.962-1.209.173-.347.26-.693.26-1.04 0-.537-.186-.953-.559-1.248-.364-.303-.888-.455-1.573-.455-1.066 0-1.894.338-2.483 1.014l-.663-.572a3.497 3.497 0 0 1 1.352-.962c.555-.225 1.179-.338 1.872-.338.927 0 1.66.221 2.197.663.546.433.819 1.031.819 1.794 0 .468-.104.919-.312 1.352-.208.433-.602.932-1.183 1.495l-3.094 3.042h5.005ZM208.536 13.158l2.033-4.708-1.774-4.176-.034-.08h.842l.015.036 1.458 3.491 1.457-3.491.015-.036h.842l-.034.08-1.774 4.176 2.061 4.709 3.826-9 .016-.036h.928l-.035.082-4.337 9.969-.016.035H213.276l-.015-.035-2.171-5-2.185 5-.016.035H208.14l-.015-.035-4.323-9.97-.036-.08h.915l.015.035 3.84 8.999Zm-20.831-9.603c-.224.18-.333.187-.264.306.071.123.093.175-.084.184-.178.009-.303-.017-.245.07.058.088.156.193-.151.24-.306.049-1.138.346-1.64.386-.502.039-.702.245-.769.406-.067.162-.694.433-.858.189-.164-.245-.365-.622-.267-.827.475-.999-.591-.247-.875-.646 1.667-.478 3.657-.739 5.153-.308Zm2.96.884c3.857 1.57 5.894 5.424 6.458 7.604-.677.528-1.984 1.673-2.126.904-.142-.768-.389.032-.638-.598s-1.28-1.19-.533-.245.211.528.567 1.018c.355.49.676.77 1.244.595.569-.175.463.35-.035.875s-1.493 1.47-1.458 2.66c.036 1.19.391 1.12-.391 1.75-.782.63-.178.804-.711 1.294-.534.49-.391 1.05-1.352 1.47-.96.42-.64.42-.924-.49-.285-.91-.996-1.365-.925-2.485.071-1.12.534-1.96-.035-2.554-.569-.595.035-1.715-.818-1.645-.854.07-1.92.805-2.738-.56-.818-1.365-1.28-2.485-.427-3.01.854-.524.818-1.33 1.067-1.54.249-.21.889.315 2.311-.07 1.423-.384.498.175 1.423.595.924.42 1.209.07 1.422-.07.213-.14 1.92-.385.818-.804-1.256-.479-1.631-.204-1.786-.966-.142-.7-1.893-.42-1.295-.166.599.253 1.125.572.876.624-.249.053-.469.36-.658.293-.189-.067.498-.205.125-.45-.374-.245-.622-.193-.747-.438-.124-.245-.142-.297-.142-.297s-.427-.245-.96.525c-.534.77-1.28 1.05-1.494.245-.213-.805 1.92-.735 1.031-1.26s.854-.735 1.281-.77c.426-.035 1.529-1.19.782-1.015-.747.175-1.067.28-1.707-.14-.63-.413 1.84-.25 2.495-.88Zm-16.254 8.072c.598-2.804 4.03-7.353 6.955-8.08.747 0 .466 1.053.857 1.718.391.665-.107 1.05-1.743 1.295-1.636.245-1.386 1.33-2.169 1.68-.782.35-1.209 1.295-1.458.875-.249-.42-1.031-.35-1.529 1.015-.498 1.364.075 1.138.479 1.027.404-.11.303.46.694 1.089.391.63 1.281.298 2.134.053.854-.245 2.098.385 2.347 1.05.249.665 0 1.19 1.707 1.785s1.173.805.925 1.54c-.25.735-.356 1.155-.854 1.855s.249 1.12-.498 1.47c-.747.35-1.6.98-1.564 1.644.035.665.604 1.785-.427 1.015s-1.387-2.135-1.529-4.095c-.142-1.96-.676-.944-1.423-1.784-.746-.84-.693-1.943-.391-2.502.303-.56.516-1.208-.106-1.278-.623-.07-.889-.227-1.138-.857-.249-.63-.338-.21-.889-.298-.196-.03-.316-.095-.38-.217Zm29.428 14.392h45.448v.003h.029v-.012c.309-.015.575-.133.799-.352.241-.235.361-.523.361-.863 0-.33-.118-.615-.359-.85-.129-.129-.391-.315-.785-.564-.465-.248-.787-.458-.966-.634a1.345 1.345 0 0 1-.419-.993c0-.393.139-.726.419-1.004.245-.244.536-.381.87-.41 0-.012 1.653-.007 1.81-.007v.523c-.57 0-1.148-.002-1.634-.006a.977.977 0 0 0-.664.282.834.834 0 0 0-.261.622c0 .239.087.443.261.615.102.1.318.251.646.456.519.28.889.527 1.107.742.345.343.517.752.517 1.228 0 .487-.172.902-.517 1.243-.344.341-.762.511-1.254.511-.057 0-.113-.002-.168-.007h-45.241l.001-.523ZM185.815 1c3.788 0 7.218 1.511 9.7 3.954 2.482 2.443 4.018 5.818 4.018 9.546 0 3.728-1.536 7.103-4.018 9.546a13.787 13.787 0 0 1-9.7 3.954 13.79 13.79 0 0 1-9.7-3.954c-2.482-2.443-4.017-5.818-4.017-9.546 0-3.727 1.535-7.103 4.017-9.546a13.79 13.79 0 0 1 9.7-3.954Zm9.051 4.593a12.863 12.863 0 0 0-9.051-3.69c-3.534 0-6.735 1.41-9.051 3.69-2.316 2.28-3.748 5.429-3.748 8.907 0 3.479 1.432 6.628 3.748 8.907a12.867 12.867 0 0 0 9.051 3.69c3.535 0 6.735-1.41 9.051-3.69 2.316-2.28 3.749-5.428 3.749-8.907 0-3.478-1.433-6.628-3.749-8.907Zm58.649 15.816v-2.504h.546v2.504h1.217v.54h-1.217v5.34h-.546v-5.34h-1.217v-.54h1.217Zm5.689 5.965c-.746 0-1.342-.217-1.782-.652-.443-.436-.671-.986-.683-1.648V21.41h.548v3.618c0 .499.185.924.554 1.276.366.353.817.531 1.357.531.502 0 .939-.176 1.304-.53.368-.353.552-.778.552-1.277V21.41h.547v3.665c-.013.662-.239 1.212-.681 1.647-.443.436-1.014.653-1.716.653Zm10.673-.084h-.548v-1.198a3.94 3.94 0 0 1-.347.4c-.652.645-1.441.965-2.365.965-.923 0-1.71-.32-2.362-.964-.654-.642-.98-1.417-.98-2.322 0-.912.326-1.689.98-2.33a3.245 3.245 0 0 1 2.362-.965 3.25 3.25 0 0 1 2.365.964c.127.127.241.262.347.401v-4.534h.548v9.583Zm-.548-2.588v-1.065a2.621 2.621 0 0 0-.76-1.39 2.68 2.68 0 0 0-1.952-.795c-.765 0-1.415.264-1.955.795a2.596 2.596 0 0 0-.808 1.924c0 .75.268 1.39.808 1.92.54.526 1.19.792 1.955.792a2.68 2.68 0 0 0 1.952-.797c.405-.399.658-.86.76-1.384Zm3.043-3.293v5.88h-.548v-5.88h.548Zm-.274-2.083c.149 0 .278.051.386.156a.5.5 0 0 1 .162.376c0 .151-.054.28-.162.384a.537.537 0 0 1-.386.155.533.533 0 0 1-.386-.155.515.515 0 0 1-.163-.384c0-.147.055-.274.163-.376a.533.533 0 0 1 .386-.156Zm5.197 1.55c.924 0 1.713.322 2.363.964.652.642.976 1.419.976 2.33a3.14 3.14 0 0 1-.976 2.323c-.65.644-1.439.965-2.363.965-.921 0-1.708-.321-2.362-.965-.652-.642-.978-1.417-.978-2.322 0-.912.326-1.689.978-2.33a3.251 3.251 0 0 1 2.362-.965Zm0 .576c-.763 0-1.415.264-1.953.795a2.598 2.598 0 0 0-.81 1.924c0 .75.27 1.39.81 1.92a2.69 2.69 0 0 0 1.953.792c.762 0 1.414-.265 1.954-.793.538-.53.808-1.17.808-1.92 0-.752-.27-1.391-.808-1.923a2.684 2.684 0 0 0-1.954-.795Zm-54.464-7.16a4.022 4.022 0 0 0 1.03-.137c.328-.089.632-.215.911-.376.278-.164.52-.356.727-.578a2.56 2.56 0 0 0 .485-.735l-.841-.225a1.96 1.96 0 0 1-.526.693 2.55 2.55 0 0 1-.804.459c-.304.11-.623.166-.953.168a2.625 2.625 0 0 1-1.862-.772 2.89 2.89 0 0 1-.601-.864 3.15 3.15 0 0 1-.276-1.088h6.348a2.313 2.313 0 0 0 .029-.38 3.962 3.962 0 0 0-.276-1.431 3.74 3.74 0 0 0-.756-1.196 3.529 3.529 0 0 0-1.16-.817c-.45-.198-.944-.3-1.489-.304a3.662 3.662 0 0 0-3.445 2.31 3.895 3.895 0 0 0-.279 1.453c.003.524.096 1.013.279 1.474.185.459.442.864.777 1.215a3.63 3.63 0 0 0 1.184.826c.454.199.954.3 1.498.304Zm-2.739-4.185c.026-.388.114-.744.264-1.067a2.674 2.674 0 0 1 1.436-1.39 2.743 2.743 0 0 1 1.025-.197c.366.003.709.066 1.025.194.319.13.601.312.849.548.247.237.447.517.599.84.152.323.247.681.281 1.072h-5.479Zm52.062 4.184a4.022 4.022 0 0 0 1.03-.136 3.77 3.77 0 0 0 .91-.376c.279-.164.521-.356.728-.578a2.56 2.56 0 0 0 .485-.735l-.842-.225a1.945 1.945 0 0 1-.525.693 2.55 2.55 0 0 1-.804.459c-.304.11-.623.166-.953.168a2.625 2.625 0 0 1-1.862-.772 2.893 2.893 0 0 1-.602-.864 3.195 3.195 0 0 1-.276-1.088h6.349a2.314 2.314 0 0 0 .029-.38 3.962 3.962 0 0 0-.276-1.431 3.756 3.756 0 0 0-.756-1.196 3.533 3.533 0 0 0-1.161-.817 3.709 3.709 0 0 0-1.488-.304 3.74 3.74 0 0 0-1.491.3 3.64 3.64 0 0 0-1.179.812 3.76 3.76 0 0 0-.776 1.198 3.894 3.894 0 0 0-.278 1.453c.003.524.095 1.013.278 1.474.186.459.443.864.778 1.215a3.62 3.62 0 0 0 1.184.826c.454.199.954.3 1.498.304Zm-2.739-4.184c.026-.388.114-.744.264-1.067.147-.323.345-.601.59-.84a2.663 2.663 0 0 1 1.871-.747 2.671 2.671 0 0 1 1.874.742c.247.237.447.517.599.84.152.323.247.681.28 1.072h-5.478Zm-37.343 4.19a3.295 3.295 0 0 1-2.262-.409 3.5 3.5 0 0 1-1.098-1v1.321H227.951V3.842H228.783v4.409a4.778 4.778 0 0 1 .683-.752c.148-.13.303-.247.465-.348.162-.101.333-.189.513-.262a2.89 2.89 0 0 1 .563-.167 3.37 3.37 0 0 1 1.232 0 3.051 3.051 0 0 1 1.077.418 3.602 3.602 0 0 1 1.163 1.206 4.299 4.299 0 0 1 .596 2.182 4.16 4.16 0 0 1-.047.606 3.76 3.76 0 0 1-.132.574 4.06 4.06 0 0 1-.502 1.045 3.793 3.793 0 0 1-.77.837 3.551 3.551 0 0 1-.992.557 3.17 3.17 0 0 1-.56.15Zm-1.052-.72c.107.016.211.024.314.024.17-.002.334-.016.493-.045a2.813 2.813 0 0 0 1.255-.59 3.077 3.077 0 0 0 .614-.69 3.399 3.399 0 0 0 .395-.836c.045-.149.08-.3.103-.452.022-.151.034-.305.034-.46a3.513 3.513 0 0 0-.203-1.17 3.107 3.107 0 0 0-.972-1.388 2.74 2.74 0 0 0-.471-.298 2.35 2.35 0 0 0-.533-.192 2.663 2.663 0 0 0-1.038-.027 2.328 2.328 0 0 0-.421.116 2.81 2.81 0 0 0-.748.417 3.688 3.688 0 0 0-.613.608 4.257 4.257 0 0 0-.446.712v2.399a1.478 1.478 0 0 0 .208.59 2.125 2.125 0 0 0 .44.523 3.025 3.025 0 0 0 .595.415 3.656 3.656 0 0 0 .664.272c.112.031.221.055.33.072ZM247.631 9c.038.292.057.61.055.951l.001 4.199v.058h-.833v-4.13c0-.455-.036-.851-.108-1.188a2.391 2.391 0 0 0-.322-.826 1.363 1.363 0 0 0-.53-.479 1.64 1.64 0 0 0-.749-.159 2.41 2.41 0 0 0-.584.073 2.253 2.253 0 0 0-.533.213c-.17.093-.329.206-.475.336a2.93 2.93 0 0 0-.405.447 3.288 3.288 0 0 0-.325.54 3.93 3.93 0 0 0-.23.615v4.558H241.761v-4.13a5.85 5.85 0 0 0-.105-1.2 2.387 2.387 0 0 0-.318-.823 1.326 1.326 0 0 0-.525-.475 1.636 1.636 0 0 0-.747-.154 2.326 2.326 0 0 0-1.106.278 2.65 2.65 0 0 0-.478.332 2.885 2.885 0 0 0-.411.441 3.24 3.24 0 0 0-.333.543 3.75 3.75 0 0 0-.238.617v4.571H236.668V6.791H237.443v1.575c.076-.126.156-.245.241-.358.127-.17.265-.326.414-.468a3.3 3.3 0 0 1 .471-.374 3.12 3.12 0 0 1 1.078-.444c.191-.038.388-.057.59-.057.213 0 .412.023.597.066.187.043.361.107.522.19a2.096 2.096 0 0 1 .776.714c.097.15.177.314.239.49.045.128.081.262.108.402.157-.27.326-.51.507-.722.214-.25.445-.46.691-.63a2.889 2.889 0 0 1 1.682-.51c.275 0 .525.035.749.1.225.066.425.165.597.296.173.131.322.292.448.481.124.188.226.405.305.65.077.244.135.514.173.81Zm4.557 5.308c-.199.027-.402.04-.609.04a3.025 3.025 0 0 1-.512-.046 2.6 2.6 0 0 1-.904-.342 2.343 2.343 0 0 1-.904-1.017 2.1 2.1 0 0 1-.143-.44 2.415 2.415 0 0 1-.05-.48 1.845 1.845 0 0 1 .236-.897 2.09 2.09 0 0 1 .281-.378c.109-.117.234-.224.376-.322a2.96 2.96 0 0 1 .462-.262c.166-.076.345-.14.536-.194.191-.053.392-.093.604-.12a5.526 5.526 0 0 1 1.068-.029 6.994 6.994 0 0 1 .816.096 7.029 7.029 0 0 1 .761.174c.091.027.18.056.267.086v-.633a2.875 2.875 0 0 0-.069-.632 2.17 2.17 0 0 0-.2-.538 1.826 1.826 0 0 0-.747-.758 2.075 2.075 0 0 0-.529-.203 2.736 2.736 0 0 0-.621-.07c-.183 0-.37.018-.56.054a3.697 3.697 0 0 0-.585.166 4.79 4.79 0 0 0-.599.27c-.201.106-.403.23-.605.37l-.052.035-.033-.054-.285-.478-.029-.047.047-.03c.241-.16.479-.3.712-.42.234-.12.466-.22.694-.3.227-.082.452-.143.674-.184a3.885 3.885 0 0 1 1.511.03c.262.06.504.149.724.267a2.468 2.468 0 0 1 1.023 1.011c.119.22.209.46.269.723.06.26.091.542.092.844v3.555c0 .054.006.101.017.14.01.036.025.065.044.086l.001.001a.173.173 0 0 0 .069.048c.03.012.067.018.109.018h.06V14.187l-.051.007a1.714 1.714 0 0 1-.147.013c-.045.002-.084.002-.118.002a.772.772 0 0 1-.358-.085.746.746 0 0 1-.274-.235.597.597 0 0 1-.113-.355v-.441a3.336 3.336 0 0 1-.724.624 3.715 3.715 0 0 1-1.048.471 4.242 4.242 0 0 1-.584.121Zm-.965-.697c.157.038.323.058.499.059a4.063 4.063 0 0 0 1.037-.136c.163-.045.319-.099.465-.162.145-.064.281-.137.408-.219.127-.08.241-.17.342-.266a1.88 1.88 0 0 0 .266-.314l.002-.002.002-.003a1.41 1.41 0 0 0 .1-.135.873.873 0 0 0 .115-.268.565.565 0 0 0 .014-.122v-1.25a6.657 6.657 0 0 0-1.038-.276 6.673 6.673 0 0 0-1.128-.1 4.547 4.547 0 0 0-.69.052 3.155 3.155 0 0 0-.593.15 2.353 2.353 0 0 0-.482.238 1.675 1.675 0 0 0-.358.313 1.272 1.272 0 0 0-.224.38c-.05.136-.075.282-.076.437.001.16.022.31.063.454.041.143.102.278.182.405a1.7 1.7 0 0 0 .653.597c.138.074.286.13.441.168Zm9.396.668a5.066 5.066 0 0 1-1.953-.058 4.325 4.325 0 0 1-1.037-.38 3.822 3.822 0 0 1-.884-.632l-.037-.036.031-.04.356-.478.039-.052.049.043c.195.173.395.323.598.45a3.533 3.533 0 0 0 1.297.51 4.027 4.027 0 0 0 1.314.02 2.68 2.68 0 0 0 .513-.133c.157-.058.296-.129.417-.213.121-.083.224-.179.309-.287.085-.106.15-.225.193-.355.044-.13.067-.273.068-.426 0-.109-.012-.208-.036-.298a.811.811 0 0 0-.107-.241.964.964 0 0 0-.177-.202 1.35 1.35 0 0 0-.251-.172 2.763 2.763 0 0 0-.327-.15 4.69 4.69 0 0 0-.401-.135 14.27 14.27 0 0 0-.477-.13c-.168-.043-.35-.087-.546-.131a18.316 18.316 0 0 1-.591-.145 11.797 11.797 0 0 1-.508-.144 4.035 4.035 0 0 1-.428-.158 2.432 2.432 0 0 1-.349-.183 1.381 1.381 0 0 1-.275-.223 1.211 1.211 0 0 1-.312-.612 2.026 2.026 0 0 1-.038-.403c.001-.186.021-.361.058-.523.037-.166.093-.319.165-.459a1.978 1.978 0 0 1 .608-.695c.127-.091.265-.172.414-.24.148-.069.307-.125.474-.169.164-.045.336-.079.514-.101.18-.023.364-.034.552-.034.197 0 .386.012.566.034a3.934 3.934 0 0 1 .999.256c.149.061.289.13.42.21.13.077.249.162.356.253.107.09.203.189.288.294l.033.042-.039.036-.399.38-.045.042-.041-.047a1.987 1.987 0 0 0-.58-.454 2.861 2.861 0 0 0-.359-.16 3.192 3.192 0 0 0-.392-.116 3.63 3.63 0 0 0-.418-.069 4.049 4.049 0 0 0-.829-.001 2.85 2.85 0 0 0-.364.063 2.156 2.156 0 0 0-.329.108 1.761 1.761 0 0 0-.287.153 1.29 1.29 0 0 0-.411.447c-.049.09-.085.19-.11.297a1.585 1.585 0 0 0-.014.628c.017.08.042.153.076.215.035.064.08.123.133.177a.976.976 0 0 0 .192.145c.077.044.163.086.261.126.098.04.209.078.33.114.124.036.257.073.401.11.143.037.301.076.475.116a20.167 20.167 0 0 1 1.245.322c.182.055.349.115.502.18.153.063.293.131.419.204.254.15.447.335.578.555.066.111.116.236.149.372a2.131 2.131 0 0 1-.044 1.075 1.843 1.843 0 0 1-.274.542c-.12.165-.265.311-.434.439-.17.127-.363.236-.581.325-.216.09-.452.157-.708.202Zm4.535-6.92V4.493h.744V7.36H267.292V8.095H265.898v6.114h-.744V8.095h-1.393V7.36h1.393Zm15.59-.586.091-.01.067-.009v.783l-.057.002a3.426 3.426 0 0 0-.635.08c-.201.047-.393.112-.574.195a2.711 2.711 0 0 0-.94.706 2.86 2.86 0 0 0-.344.497c-.098.178-.18.371-.246.578V14.21H277.274V6.791H278.063v1.632a3.815 3.815 0 0 1 .53-.708c.127-.13.26-.25.4-.355a3.022 3.022 0 0 1 .903-.469c.158-.049.319-.082.484-.1h.006a4.104 4.104 0 0 0 .249-.009h.002l.107-.008ZM5.91 2.58V10h-.92v-.84a2.079 2.079 0 0 1-.81.67 2.51 2.51 0 0 1-1.08.23c-.513 0-.973-.113-1.38-.34a2.48 2.48 0 0 1-.96-.95C.533 8.357.42 7.883.42 7.35c0-.533.113-1.003.34-1.41a2.48 2.48 0 0 1 .96-.95c.407-.227.867-.34 1.38-.34.38 0 .73.073 1.05.22.32.14.587.35.8.63V2.58h.96ZM3.18 9.22c.333 0 .637-.077.91-.23.273-.16.487-.38.64-.66.153-.287.23-.613.23-.98s-.077-.69-.23-.97a1.608 1.608 0 0 0-.64-.66 1.828 1.828 0 0 0-.91-.23c-.34 0-.647.077-.92.23-.267.153-.48.373-.64.66-.153.28-.23.603-.23.97s.077.693.23.98c.16.28.373.5.64.66.273.153.58.23.92.23Zm9.336-1.84c0 .073-.006.17-.02.29h-4.3c.06.467.264.843.61 1.13.354.28.79.42 1.31.42.634 0 1.144-.213 1.53-.64l.53.62c-.24.28-.54.493-.9.64-.353.147-.75.22-1.19.22-.56 0-1.056-.113-1.49-.34a2.528 2.528 0 0 1-1.01-.97 2.798 2.798 0 0 1-.35-1.4c0-.513.114-.977.34-1.39.234-.413.55-.733.95-.96.407-.233.864-.35 1.37-.35.507 0 .957.117 1.35.35.4.227.71.547.93.96.227.413.34.887.34 1.42Zm-2.62-1.92c-.46 0-.846.14-1.16.42-.306.28-.486.647-.54 1.1h3.4a1.674 1.674 0 0 0-.55-1.09c-.306-.287-.69-.43-1.15-.43Zm8.546-.76-2.32 5.3h-.98l-2.32-5.3h1l1.82 4.25 1.86-4.25h.94Zm5.54 2.68c0 .073-.007.17-.02.29h-4.3c.06.467.263.843.61 1.13.353.28.79.42 1.31.42.633 0 1.143-.213 1.53-.64l.53.62c-.24.28-.54.493-.9.64-.354.147-.75.22-1.19.22-.56 0-1.057-.113-1.49-.34a2.527 2.527 0 0 1-1.01-.97 2.797 2.797 0 0 1-.35-1.4c0-.513.113-.977.34-1.39a2.48 2.48 0 0 1 .95-.96c.406-.233.863-.35 1.37-.35.506 0 .956.117 1.35.35.4.227.71.547.93.96.226.413.34.887.34 1.42Zm-2.62-1.92c-.46 0-.847.14-1.16.42-.307.28-.487.647-.54 1.1h3.4a1.675 1.675 0 0 0-.55-1.09c-.307-.287-.69-.43-1.15-.43Zm3.952-2.88h.96V10h-.96V2.58Zm5.063 7.48c-.526 0-1-.117-1.42-.35a2.585 2.585 0 0 1-.99-.96 2.797 2.797 0 0 1-.35-1.4c0-.52.117-.983.35-1.39.24-.413.57-.733.99-.96.42-.233.894-.35 1.42-.35.527 0 .997.117 1.41.35.42.227.747.547.98.96.24.407.36.87.36 1.39 0 .52-.12.987-.36 1.4-.233.407-.56.727-.98.96-.413.233-.883.35-1.41.35Zm0-.84c.34 0 .644-.077.91-.23.274-.16.487-.38.64-.66.154-.287.23-.613.23-.98s-.076-.69-.23-.97a1.608 1.608 0 0 0-.64-.66 1.793 1.793 0 0 0-.91-.23c-.34 0-.646.077-.92.23-.266.153-.48.373-.64.66-.153.28-.23.603-.23.97s.077.693.23.98c.16.28.374.5.64.66.274.153.58.23.92.23Zm6.888-4.57c.513 0 .973.113 1.38.34.407.227.723.543.95.95.233.407.35.877.35 1.41 0 .533-.117 1.007-.35 1.42a2.41 2.41 0 0 1-.95.95c-.407.227-.867.34-1.38.34-.38 0-.73-.073-1.05-.22a2.185 2.185 0 0 1-.8-.64v2.74h-.96V4.7h.92v.84a2 2 0 0 1 .81-.66 2.51 2.51 0 0 1 1.08-.23Zm-.08 4.57c.34 0 .643-.077.91-.23.273-.16.487-.38.64-.66.16-.287.24-.613.24-.98s-.08-.69-.24-.97a1.607 1.607 0 0 0-.64-.66 1.792 1.792 0 0 0-.91-.23c-.333 0-.637.08-.91.24-.267.153-.48.37-.64.65-.153.28-.23.603-.23.97s.077.693.23.98c.153.28.367.5.64.66.273.153.577.23.91.23Zm9.582-4.57c.513 0 .973.113 1.38.34.407.227.723.543.95.95.233.407.35.877.35 1.41 0 .533-.117 1.007-.35 1.42a2.412 2.412 0 0 1-.95.95c-.407.227-.867.34-1.38.34a2.51 2.51 0 0 1-1.08-.23 2.078 2.078 0 0 1-.81-.67V10h-.92V2.58h.96V5.5c.213-.28.48-.49.8-.63.32-.147.67-.22 1.05-.22Zm-.08 4.57c.34 0 .643-.077.91-.23.273-.16.486-.38.64-.66.16-.287.24-.613.24-.98s-.08-.69-.24-.97a1.608 1.608 0 0 0-.64-.66 1.793 1.793 0 0 0-.91-.23c-.334 0-.637.077-.91.23a1.607 1.607 0 0 0-.64.66c-.154.28-.23.603-.23.97s.077.693.23.98c.153.28.367.5.64.66.273.153.576.23.91.23Zm8.63-4.52-2.57 5.83c-.227.54-.493.92-.8 1.14-.3.22-.664.33-1.09.33-.26 0-.514-.043-.76-.13-.24-.08-.44-.2-.6-.36l.41-.72c.273.26.59.39.95.39a.88.88 0 0 0 .58-.19c.16-.12.303-.33.43-.63l.17-.37-2.34-5.29h1l1.85 4.24 1.83-4.24h.94Z" fill="gray"/></svg>