<svg width="281" height="33" viewBox="0 0 281 33" fill="none" xmlns="http://www.w3.org/2000/svg">
<path d="M3.991 28.078C3.315 28.078 2.665 27.9697 2.041 27.753C1.42567 27.5363 0.949 27.2503 0.611 26.895L0.988 26.154C1.31733 26.4833 1.755 26.752 2.301 26.96C2.847 27.1593 3.41033 27.259 3.991 27.259C4.80567 27.259 5.41667 27.1117 5.824 26.817C6.23133 26.5137 6.435 26.1237 6.435 25.647C6.435 25.283 6.32233 24.9927 6.097 24.776C5.88033 24.5593 5.61167 24.3947 5.291 24.282C4.97033 24.1607 4.524 24.0307 3.952 23.892C3.26733 23.7187 2.72133 23.554 2.314 23.398C1.90667 23.2333 1.55567 22.9863 1.261 22.657C0.975 22.3277 0.832 21.8813 0.832 21.318C0.832 20.8587 0.953333 20.4427 1.196 20.07C1.43867 19.6887 1.81133 19.3853 2.314 19.16C2.81667 18.9347 3.44067 18.822 4.186 18.822C4.706 18.822 5.213 18.8957 5.707 19.043C6.20967 19.1817 6.643 19.3767 7.007 19.628L6.682 20.395C6.30067 20.1437 5.89333 19.9573 5.46 19.836C5.02667 19.706 4.602 19.641 4.186 19.641C3.38867 19.641 2.78633 19.797 2.379 20.109C1.98033 20.4123 1.781 20.8067 1.781 21.292C1.781 21.656 1.88933 21.9507 2.106 22.176C2.33133 22.3927 2.60867 22.5617 2.938 22.683C3.276 22.7957 3.72667 22.9213 4.29 23.06C4.95733 23.2247 5.49467 23.3893 5.902 23.554C6.318 23.71 6.669 23.9527 6.955 24.282C7.241 24.6027 7.384 25.0403 7.384 25.595C7.384 26.0543 7.25833 26.4747 7.007 26.856C6.76433 27.2287 6.38733 27.5277 5.876 27.753C5.36467 27.9697 4.73633 28.078 3.991 28.078ZM12.886 27.584C12.7127 27.74 12.496 27.8613 12.236 27.948C11.9847 28.026 11.7204 28.065 11.443 28.065C10.8017 28.065 10.3077 27.8917 9.96105 27.545C9.61438 27.1983 9.44105 26.7087 9.44105 26.076V21.942H8.21905V21.162H9.44105V19.667H10.364V21.162H12.444V21.942H10.364V26.024C10.364 26.4313 10.4637 26.7433 10.663 26.96C10.871 27.168 11.1657 27.272 11.547 27.272C11.7377 27.272 11.9197 27.2417 12.093 27.181C12.275 27.1203 12.431 27.0337 12.561 26.921L12.886 27.584ZM20.7283 21.162V28H19.8443V26.752C19.6016 27.168 19.268 27.493 18.8433 27.727C18.4186 27.9523 17.9333 28.065 17.3873 28.065C16.4946 28.065 15.7883 27.818 15.2683 27.324C14.757 26.8213 14.5013 26.089 14.5013 25.127V21.162H15.4243V25.036C15.4243 25.7553 15.602 26.3013 15.9573 26.674C16.3126 27.0467 16.8196 27.233 17.4783 27.233C18.1976 27.233 18.7653 27.0163 19.1813 26.583C19.5973 26.141 19.8053 25.53 19.8053 24.75V21.162H20.7283ZM29.5534 18.354V28H28.6694V26.648C28.392 27.1073 28.0237 27.4583 27.5644 27.701C27.1137 27.9437 26.6024 28.065 26.0304 28.065C25.389 28.065 24.8084 27.9177 24.2884 27.623C23.7684 27.3283 23.361 26.9167 23.0664 26.388C22.7717 25.8593 22.6244 25.257 22.6244 24.581C22.6244 23.905 22.7717 23.3027 23.0664 22.774C23.361 22.2453 23.7684 21.838 24.2884 21.552C24.8084 21.2573 25.389 21.11 26.0304 21.11C26.585 21.11 27.0834 21.227 27.5254 21.461C27.976 21.6863 28.3444 22.02 28.6304 22.462V18.354H29.5534ZM26.1084 27.246C26.585 27.246 27.014 27.1377 27.3954 26.921C27.7854 26.6957 28.0887 26.3793 28.3054 25.972C28.5307 25.5647 28.6434 25.101 28.6434 24.581C28.6434 24.061 28.5307 23.5973 28.3054 23.19C28.0887 22.7827 27.7854 22.4707 27.3954 22.254C27.014 22.0287 26.585 21.916 26.1084 21.916C25.623 21.916 25.1854 22.0287 24.7954 22.254C24.414 22.4707 24.1107 22.7827 23.8854 23.19C23.6687 23.5973 23.5604 24.061 23.5604 24.581C23.5604 25.101 23.6687 25.5647 23.8854 25.972C24.1107 26.3793 24.414 26.6957 24.7954 26.921C25.1854 27.1377 25.623 27.246 26.1084 27.246ZM32.1239 21.162H33.0469V28H32.1239V21.162ZM32.5919 19.667C32.4012 19.667 32.2409 19.602 32.1109 19.472C31.9809 19.342 31.9159 19.186 31.9159 19.004C31.9159 18.8307 31.9809 18.679 32.1109 18.549C32.2409 18.419 32.4012 18.354 32.5919 18.354C32.7826 18.354 32.9429 18.419 33.0729 18.549C33.2029 18.6703 33.2679 18.8177 33.2679 18.991C33.2679 19.1817 33.2029 19.342 33.0729 19.472C32.9429 19.602 32.7826 19.667 32.5919 19.667ZM38.4101 28.065C37.7515 28.065 37.1578 27.9177 36.6291 27.623C36.1005 27.3197 35.6845 26.9037 35.3811 26.375C35.0778 25.8463 34.9261 25.2483 34.9261 24.581C34.9261 23.9137 35.0778 23.3157 35.3811 22.787C35.6845 22.2583 36.1005 21.8467 36.6291 21.552C37.1578 21.2573 37.7515 21.11 38.4101 21.11C39.0688 21.11 39.6625 21.2573 40.1911 21.552C40.7198 21.8467 41.1315 22.2583 41.4261 22.787C41.7295 23.3157 41.8811 23.9137 41.8811 24.581C41.8811 25.2483 41.7295 25.8463 41.4261 26.375C41.1315 26.9037 40.7198 27.3197 40.1911 27.623C39.6625 27.9177 39.0688 28.065 38.4101 28.065ZM38.4101 27.246C38.8955 27.246 39.3288 27.1377 39.7101 26.921C40.1001 26.6957 40.4035 26.3793 40.6201 25.972C40.8368 25.5647 40.9451 25.101 40.9451 24.581C40.9451 24.061 40.8368 23.5973 40.6201 23.19C40.4035 22.7827 40.1001 22.4707 39.7101 22.254C39.3288 22.0287 38.8955 21.916 38.4101 21.916C37.9248 21.916 37.4871 22.0287 37.0971 22.254C36.7158 22.4707 36.4125 22.7827 36.1871 23.19C35.9705 23.5973 35.8621 24.061 35.8621 24.581C35.8621 25.101 35.9705 25.5647 36.1871 25.972C36.4125 26.3793 36.7158 26.6957 37.0971 26.921C37.4871 27.1377 37.9248 27.246 38.4101 27.246ZM59.8559 18.9L56.7879 28H55.7739L53.1089 20.239L50.4309 28H49.4299L46.3619 18.9H47.3499L49.9759 26.726L52.6929 18.9H53.5899L56.2679 26.765L58.9329 18.9H59.8559ZM66.8582 24.867H61.1382C61.1902 25.5777 61.4632 26.154 61.9572 26.596C62.4512 27.0293 63.0752 27.246 63.8292 27.246C64.2539 27.246 64.6439 27.1723 64.9992 27.025C65.3545 26.869 65.6622 26.6437 65.9222 26.349L66.4422 26.947C66.1389 27.311 65.7575 27.5883 65.2982 27.779C64.8475 27.9697 64.3492 28.065 63.8032 28.065C63.1012 28.065 62.4772 27.9177 61.9312 27.623C61.3939 27.3197 60.9735 26.9037 60.6702 26.375C60.3669 25.8463 60.2152 25.2483 60.2152 24.581C60.2152 23.9137 60.3582 23.3157 60.6442 22.787C60.9389 22.2583 61.3375 21.8467 61.8402 21.552C62.3515 21.2573 62.9235 21.11 63.5562 21.11C64.1889 21.11 64.7565 21.2573 65.2592 21.552C65.7619 21.8467 66.1562 22.2583 66.4422 22.787C66.7282 23.307 66.8712 23.905 66.8712 24.581L66.8582 24.867ZM63.5562 21.903C62.8975 21.903 62.3429 22.1153 61.8922 22.54C61.4502 22.956 61.1989 23.502 61.1382 24.178H65.9872C65.9265 23.502 65.6709 22.956 65.2202 22.54C64.7782 22.1153 64.2235 21.903 63.5562 21.903ZM72.2729 21.11C72.9142 21.11 73.4949 21.2573 74.0149 21.552C74.5349 21.838 74.9422 22.2453 75.2369 22.774C75.5316 23.3027 75.6789 23.905 75.6789 24.581C75.6789 25.257 75.5316 25.8593 75.2369 26.388C74.9422 26.9167 74.5349 27.3283 74.0149 27.623C73.4949 27.9177 72.9142 28.065 72.2729 28.065C71.7009 28.065 71.1852 27.9437 70.7259 27.701C70.2752 27.4583 69.9112 27.1073 69.6339 26.648V28H68.7499V18.354H69.6729V22.462C69.9589 22.02 70.3229 21.6863 70.7649 21.461C71.2156 21.227 71.7182 21.11 72.2729 21.11ZM72.2079 27.246C72.6846 27.246 73.1179 27.1377 73.5079 26.921C73.8979 26.6957 74.2012 26.3793 74.4179 25.972C74.6432 25.5647 74.7559 25.101 74.7559 24.581C74.7559 24.061 74.6432 23.5973 74.4179 23.19C74.2012 22.7827 73.8979 22.4707 73.5079 22.254C73.1179 22.0287 72.6846 21.916 72.2079 21.916C71.7226 21.916 71.2849 22.0287 70.8949 22.254C70.5136 22.4707 70.2102 22.7827 69.9849 23.19C69.7682 23.5973 69.6599 24.061 69.6599 24.581C69.6599 25.101 69.7682 25.5647 69.9849 25.972C70.2102 26.3793 70.5136 26.6957 70.8949 26.921C71.2849 27.1377 71.7226 27.246 72.2079 27.246ZM87.2064 18.9V28H86.2834V20.72L82.7084 26.843H82.2534L78.6784 20.759V28H77.7554V18.9H78.5484L82.5004 25.647L86.4134 18.9H87.2064ZM92.3685 21.11C93.2611 21.11 93.9458 21.3353 94.4225 21.786C94.8991 22.228 95.1375 22.8867 95.1375 23.762V28H94.2535V26.934C94.0455 27.2893 93.7378 27.5667 93.3305 27.766C92.9318 27.9653 92.4551 28.065 91.9005 28.065C91.1378 28.065 90.5311 27.883 90.0805 27.519C89.6298 27.155 89.4045 26.674 89.4045 26.076C89.4045 25.4953 89.6125 25.0273 90.0285 24.672C90.4531 24.3167 91.1248 24.139 92.0435 24.139H94.2145V23.723C94.2145 23.1337 94.0498 22.6873 93.7205 22.384C93.3911 22.072 92.9101 21.916 92.2775 21.916C91.8441 21.916 91.4281 21.9897 91.0295 22.137C90.6308 22.2757 90.2885 22.4707 90.0025 22.722L89.5865 22.033C89.9331 21.7383 90.3491 21.513 90.8345 21.357C91.3198 21.1923 91.8311 21.11 92.3685 21.11ZM92.0435 27.337C92.5635 27.337 93.0098 27.22 93.3825 26.986C93.7551 26.7433 94.0325 26.3967 94.2145 25.946V24.828H92.0695C90.8995 24.828 90.3145 25.2353 90.3145 26.05C90.3145 26.4487 90.4661 26.765 90.7695 26.999C91.0728 27.2243 91.4975 27.337 92.0435 27.337ZM99.4774 28.065C98.9228 28.065 98.3898 27.987 97.8784 27.831C97.3758 27.6663 96.9814 27.4627 96.6954 27.22L97.1114 26.492C97.3974 26.7173 97.7571 26.9037 98.1904 27.051C98.6238 27.1897 99.0744 27.259 99.5424 27.259C100.166 27.259 100.626 27.1637 100.92 26.973C101.224 26.7737 101.375 26.4963 101.375 26.141C101.375 25.8897 101.293 25.6947 101.128 25.556C100.964 25.4087 100.756 25.3003 100.504 25.231C100.253 25.153 99.9194 25.0793 99.5034 25.01C98.9488 24.906 98.5024 24.802 98.1644 24.698C97.8264 24.5853 97.5361 24.399 97.2934 24.139C97.0594 23.879 96.9424 23.5193 96.9424 23.06C96.9424 22.488 97.1808 22.02 97.6574 21.656C98.1341 21.292 98.7971 21.11 99.6464 21.11C100.088 21.11 100.53 21.1707 100.972 21.292C101.414 21.4047 101.778 21.5563 102.064 21.747L101.661 22.488C101.098 22.098 100.426 21.903 99.6464 21.903C99.0571 21.903 98.6108 22.007 98.3074 22.215C98.0128 22.423 97.8654 22.696 97.8654 23.034C97.8654 23.294 97.9478 23.502 98.1124 23.658C98.2858 23.814 98.4981 23.931 98.7494 24.009C99.0008 24.0783 99.3474 24.152 99.7894 24.23C100.335 24.334 100.773 24.438 101.102 24.542C101.432 24.646 101.713 24.8237 101.947 25.075C102.181 25.3263 102.298 25.673 102.298 26.115C102.298 26.713 102.047 27.1897 101.544 27.545C101.05 27.8917 100.361 28.065 99.4774 28.065ZM107.606 27.584C107.432 27.74 107.216 27.8613 106.956 27.948C106.704 28.026 106.44 28.065 106.163 28.065C105.521 28.065 105.027 27.8917 104.681 27.545C104.334 27.1983 104.161 26.7087 104.161 26.076V21.942H102.939V21.162H104.161V19.667H105.084V21.162H107.164V21.942H105.084V26.024C105.084 26.4313 105.183 26.7433 105.383 26.96C105.591 27.168 105.885 27.272 106.267 27.272C106.457 27.272 106.639 27.2417 106.813 27.181C106.995 27.1203 107.151 27.0337 107.281 26.921L107.606 27.584ZM114.999 24.867H109.279C109.331 25.5777 109.604 26.154 110.098 26.596C110.592 27.0293 111.216 27.246 111.97 27.246C112.394 27.246 112.784 27.1723 113.14 27.025C113.495 26.869 113.803 26.6437 114.063 26.349L114.583 26.947C114.279 27.311 113.898 27.5883 113.439 27.779C112.988 27.9697 112.49 28.065 111.944 28.065C111.242 28.065 110.618 27.9177 110.072 27.623C109.534 27.3197 109.114 26.9037 108.811 26.375C108.507 25.8463 108.356 25.2483 108.356 24.581C108.356 23.9137 108.499 23.3157 108.785 22.787C109.079 22.2583 109.478 21.8467 109.981 21.552C110.492 21.2573 111.064 21.11 111.697 21.11C112.329 21.11 112.897 21.2573 113.4 21.552C113.902 21.8467 114.297 22.2583 114.583 22.787C114.869 23.307 115.012 23.905 115.012 24.581L114.999 24.867ZM111.697 21.903C111.038 21.903 110.483 22.1153 110.033 22.54C109.591 22.956 109.339 23.502 109.279 24.178H114.128C114.067 23.502 113.811 22.956 113.361 22.54C112.919 22.1153 112.364 21.903 111.697 21.903ZM117.775 22.501C117.991 22.0417 118.312 21.695 118.737 21.461C119.17 21.227 119.703 21.11 120.336 21.11V22.007L120.115 21.994C119.395 21.994 118.832 22.215 118.425 22.657C118.017 23.099 117.814 23.7187 117.814 24.516V28H116.891V21.162H117.775V22.501ZM122.085 26.648C122.285 26.648 122.449 26.7173 122.579 26.856C122.709 26.986 122.774 27.1507 122.774 27.35C122.774 27.454 122.757 27.5667 122.722 27.688C122.696 27.8093 122.653 27.948 122.592 28.104L122.046 29.898H121.422L121.864 28.013C121.726 27.9697 121.613 27.8917 121.526 27.779C121.44 27.6577 121.396 27.5147 121.396 27.35C121.396 27.1507 121.461 26.986 121.591 26.856C121.721 26.7173 121.886 26.648 122.085 26.648ZM133.742 27.168V28H127.359V27.337L131.142 23.632C131.618 23.164 131.939 22.761 132.104 22.423C132.277 22.0763 132.364 21.7297 132.364 21.383C132.364 20.8457 132.177 20.4297 131.805 20.135C131.441 19.8317 130.916 19.68 130.232 19.68C129.166 19.68 128.338 20.018 127.749 20.694L127.086 20.122C127.441 19.706 127.892 19.3853 128.438 19.16C128.992 18.9347 129.616 18.822 130.31 18.822C131.237 18.822 131.969 19.043 132.507 19.485C133.053 19.9183 133.326 20.5163 133.326 21.279C133.326 21.747 133.222 22.1977 133.014 22.631C132.806 23.0643 132.411 23.5627 131.831 24.126L128.737 27.168H133.742ZM138.492 28.078C137.79 28.078 137.162 27.8917 136.607 27.519C136.061 27.1463 135.632 26.6133 135.32 25.92C135.017 25.218 134.865 24.3947 134.865 23.45C134.865 22.5053 135.017 21.6863 135.32 20.993C135.632 20.291 136.061 19.7537 136.607 19.381C137.162 19.0083 137.79 18.822 138.492 18.822C139.194 18.822 139.818 19.0083 140.364 19.381C140.919 19.7537 141.352 20.291 141.664 20.993C141.976 21.6863 142.132 22.5053 142.132 23.45C142.132 24.3947 141.976 25.218 141.664 25.92C141.352 26.6133 140.919 27.1463 140.364 27.519C139.818 27.8917 139.194 28.078 138.492 28.078ZM138.492 27.22C139.021 27.22 139.485 27.0727 139.883 26.778C140.291 26.4833 140.607 26.0543 140.832 25.491C141.058 24.9277 141.17 24.2473 141.17 23.45C141.17 22.6527 141.058 21.9723 140.832 21.409C140.607 20.8457 140.291 20.4167 139.883 20.122C139.485 19.8273 139.021 19.68 138.492 19.68C137.964 19.68 137.496 19.8273 137.088 20.122C136.69 20.4167 136.378 20.8457 136.152 21.409C135.927 21.9723 135.814 22.6527 135.814 23.45C135.814 24.2473 135.927 24.9277 136.152 25.491C136.378 26.0543 136.69 26.4833 137.088 26.778C137.496 27.0727 137.964 27.22 138.492 27.22ZM149.661 27.168V28H143.278V27.337L147.061 23.632C147.538 23.164 147.859 22.761 148.023 22.423C148.197 22.0763 148.283 21.7297 148.283 21.383C148.283 20.8457 148.097 20.4297 147.724 20.135C147.36 19.8317 146.836 19.68 146.151 19.68C145.085 19.68 144.258 20.018 143.668 20.694L143.005 20.122C143.361 19.706 143.811 19.3853 144.357 19.16C144.912 18.9347 145.536 18.822 146.229 18.822C147.157 18.822 147.889 19.043 148.426 19.485C148.972 19.9183 149.245 20.5163 149.245 21.279C149.245 21.747 149.141 22.1977 148.933 22.631C148.725 23.0643 148.331 23.5627 147.75 24.126L144.656 27.168H149.661ZM157.05 27.168V28H150.667V27.337L154.45 23.632C154.927 23.164 155.247 22.761 155.412 22.423C155.585 22.0763 155.672 21.7297 155.672 21.383C155.672 20.8457 155.486 20.4297 155.113 20.135C154.749 19.8317 154.225 19.68 153.54 19.68C152.474 19.68 151.646 20.018 151.057 20.694L150.394 20.122C150.749 19.706 151.2 19.3853 151.746 19.16C152.301 18.9347 152.925 18.822 153.618 18.822C154.545 18.822 155.278 19.043 155.815 19.485C156.361 19.9183 156.634 20.5163 156.634 21.279C156.634 21.747 156.53 22.1977 156.322 22.631C156.114 23.0643 155.72 23.5627 155.139 24.126L152.045 27.168H157.05Z" fill="#808080"/>
<path d="M208.536 13.158L210.569 8.45018L208.795 4.27448L208.761 4.19354H208.85H209.563H209.603L209.618 4.22988L211.076 7.72109L212.533 4.22988L212.548 4.19354H212.588H213.301H213.39L213.356 4.27448L211.582 8.44998L213.643 13.1586L217.469 4.15948L217.485 4.12334H217.524H218.323H218.413L218.378 4.2049L214.041 14.1737L214.025 14.2092H213.986H213.315H213.276L213.261 14.1737L211.09 9.1743L208.905 14.1739L208.889 14.2092H208.85H208.179H208.14L208.125 14.1737L203.802 4.2049L203.766 4.12334H203.857H204.641H204.681L204.696 4.15926L208.536 13.158ZM187.705 3.55489C187.481 3.73474 187.372 3.74176 187.441 3.86131C187.512 3.98396 187.534 4.03641 187.357 4.04508C187.179 4.05396 187.054 4.02774 187.112 4.11508C187.17 4.20263 187.268 4.30752 186.961 4.35563C186.655 4.40374 185.823 4.70129 185.321 4.74072C184.819 4.77995 184.619 4.98561 184.552 5.14749C184.485 5.30938 183.858 5.58049 183.694 5.3356C183.53 5.09071 183.329 4.7145 183.427 4.50884C183.902 3.5105 182.836 4.26189 182.552 3.86317C184.219 3.38455 186.209 3.12396 187.705 3.55489ZM190.665 4.43885C194.522 6.00935 196.559 9.86334 197.123 12.0432C196.446 12.5707 195.139 13.7155 194.997 12.9472C194.855 12.1786 194.608 12.9792 194.359 12.3492C194.11 11.7194 193.079 11.1594 193.826 12.1043C194.573 13.0492 194.037 12.6321 194.393 13.1221C194.748 13.612 195.069 13.892 195.637 13.7169C196.206 13.542 196.1 14.0669 195.602 14.5918C195.104 15.1169 194.109 16.0615 194.144 17.2515C194.18 18.4415 194.535 18.3712 193.753 19.0012C192.971 19.6312 193.575 19.8061 193.042 20.2961C192.508 20.7861 192.651 21.346 191.69 21.7658C190.73 22.1858 191.05 22.1858 190.766 21.276C190.481 20.3661 189.77 19.9112 189.841 18.7912C189.912 17.6715 190.375 16.8315 189.806 16.2366C189.237 15.6418 189.841 14.5218 188.988 14.5918C188.134 14.6618 187.068 15.3967 186.25 14.0318C185.432 12.6672 184.97 11.5472 185.823 11.0223C186.677 10.4975 186.641 9.69259 186.89 9.48259C187.139 9.2726 187.779 9.79748 189.201 9.4126C190.624 9.02751 189.699 9.58749 190.624 10.0075C191.548 10.4275 191.833 10.0775 192.046 9.93748C192.259 9.79748 193.966 9.55239 192.864 9.13261C191.608 8.65398 191.233 8.92943 191.078 8.16689C190.936 7.46712 189.185 7.74794 189.783 8.00129C190.382 8.25444 190.908 8.57263 190.659 8.62507C190.41 8.67752 190.19 8.98456 190.001 8.91807C189.812 8.85138 190.499 8.71262 190.126 8.46753C189.752 8.22264 189.504 8.27529 189.379 8.0302C189.255 7.78531 189.237 7.73265 189.237 7.73265C189.237 7.73265 188.81 7.48777 188.277 8.25774C187.743 9.02751 186.997 9.3075 186.783 8.50263C186.57 7.69776 188.703 7.76776 187.814 7.24288C186.925 6.718 188.668 6.5078 189.095 6.47291C189.521 6.43801 190.624 5.28316 189.877 5.45805C189.13 5.63294 188.81 5.73804 188.17 5.31805C187.54 4.90467 190.01 5.06779 190.665 4.43885ZM174.411 12.5109C175.009 9.70662 178.441 5.15801 181.366 4.43038C182.113 4.43038 181.832 5.48426 182.223 6.14914C182.614 6.81401 182.116 7.1991 180.48 7.44399C178.844 7.68909 179.094 8.77374 178.311 9.12393C177.529 9.47371 177.102 10.4186 176.853 9.99859C176.604 9.57881 175.822 9.64881 175.324 11.0137C174.826 12.3783 175.399 12.1518 175.803 12.0413C176.207 11.9311 176.106 12.5001 176.497 13.1299C176.888 13.7599 177.778 13.4283 178.631 13.1834C179.485 12.9383 180.729 13.5683 180.978 14.2331C181.227 14.898 180.978 15.4231 182.685 16.018C184.392 16.6128 183.858 16.8228 183.61 17.5577C183.36 18.2928 183.254 18.7126 182.756 19.4125C182.258 20.1123 183.005 20.5323 182.258 20.8823C181.511 21.2323 180.658 21.8623 180.694 22.5271C180.729 23.192 181.298 24.312 180.267 23.542C179.236 22.772 178.88 21.4072 178.738 19.4474C178.596 17.4877 178.062 18.5026 177.315 17.6626C176.569 16.8228 176.622 15.7204 176.924 15.1605C177.227 14.6007 177.44 13.9531 176.818 13.8831C176.195 13.8132 175.929 13.6558 175.68 13.0258C175.431 12.3959 175.342 12.8158 174.791 12.7283C174.595 12.6973 174.475 12.6329 174.411 12.5109ZM203.839 26.9029H249.287V26.906H249.316V26.8938C249.625 26.8786 249.891 26.7607 250.115 26.5418C250.356 26.3068 250.476 26.0186 250.476 25.6793C250.476 25.3481 250.358 25.064 250.117 24.829C249.988 24.7002 249.726 24.5141 249.332 24.2649C248.867 24.0175 248.545 23.8069 248.366 23.6312C248.086 23.3551 247.947 23.0241 247.947 22.6376C247.947 22.2453 248.086 21.912 248.366 21.6341C248.611 21.3896 248.902 21.2527 249.236 21.2232C249.236 21.2121 250.889 21.2172 251.046 21.2172V21.7402C250.476 21.7402 249.898 21.738 249.412 21.7342C249.169 21.7326 248.923 21.8468 248.748 22.0163C248.574 22.186 248.487 22.3925 248.487 22.6376C248.487 22.8769 248.574 23.0813 248.748 23.2529C248.85 23.3531 249.066 23.5044 249.394 23.7088C249.913 23.9888 250.283 24.2362 250.501 24.4507C250.846 24.7941 251.018 25.2029 251.018 25.6793C251.018 26.1658 250.846 26.5806 250.501 26.9221C250.157 27.2634 249.739 27.433 249.247 27.433C249.19 27.433 249.134 27.4307 249.079 27.4261H203.838L203.839 26.9029ZM185.815 1C189.603 1 193.033 2.51125 195.515 4.95435C197.997 7.39725 199.533 10.7724 199.533 14.5002C199.533 18.2281 197.997 21.6032 195.515 24.0461C193.033 26.489 189.603 28.0003 185.815 28.0003C182.028 28.0003 178.598 26.4892 176.115 24.0461C173.633 21.6032 172.098 18.2279 172.098 14.5002C172.098 10.7726 173.633 7.39723 176.115 4.95435C178.598 2.51124 182.028 1 185.815 1ZM194.866 5.59321C192.55 3.31364 189.35 1.90378 185.815 1.90378C182.281 1.90378 179.08 3.31364 176.764 5.59321C174.448 7.87237 173.016 11.0216 173.016 14.5002C173.016 17.9788 174.448 21.1281 176.764 23.4073C179.081 25.6868 182.281 27.0967 185.815 27.0967C189.35 27.0967 192.55 25.6866 194.866 23.4073C197.182 21.1279 198.615 17.9786 198.615 14.5002C198.615 11.0216 197.182 7.87235 194.866 5.59321ZM253.515 21.4092V18.9051H254.061V21.4092H255.278V21.9487H254.061V27.2898H253.515V21.9487H252.298V21.4092H253.515ZM259.204 27.3736C258.458 27.3736 257.862 27.157 257.422 26.7215C256.979 26.2863 256.751 25.7364 256.739 25.0742V21.4092H257.287V25.0271C257.287 25.5258 257.472 25.951 257.841 26.3026C258.207 26.6563 258.658 26.8341 259.198 26.8341C259.7 26.8341 260.137 26.6582 260.502 26.3047C260.87 25.951 261.054 25.5258 261.054 25.0271V21.4092H261.601V25.0742C261.588 25.7364 261.362 26.2863 260.92 26.7215C260.477 27.157 259.906 27.3736 259.204 27.3736ZM269.877 27.2898H269.329V26.0922C269.223 26.2311 269.109 26.366 268.982 26.4928C268.33 27.1366 267.541 27.4575 266.617 27.4575C265.694 27.4575 264.907 27.1366 264.255 26.4928C263.601 25.8508 263.275 25.0761 263.275 24.1707C263.275 23.259 263.601 22.4822 264.255 21.8405C264.907 21.1985 265.694 20.8758 266.617 20.8758C267.541 20.8758 268.33 21.1985 268.982 21.8405C269.109 21.9673 269.223 22.1021 269.329 22.2411V17.7073H269.877V27.2898ZM269.329 24.7022V23.6371C269.227 23.1098 268.974 22.6479 268.569 22.2473C268.029 21.7158 267.379 21.4521 266.617 21.4521C265.852 21.4521 265.202 21.7158 264.662 22.2473C264.122 22.7788 263.854 23.4185 263.854 24.1707C263.854 24.9208 264.122 25.5605 264.662 26.0901C265.202 26.6175 265.852 26.8832 266.617 26.8832C267.379 26.8832 268.029 26.6175 268.569 26.086C268.974 25.6873 269.227 25.2254 269.329 24.7022ZM272.372 21.4092V27.2898H271.824V21.4092H272.372ZM272.098 19.3264C272.247 19.3264 272.376 19.3774 272.484 19.4816C272.592 19.5839 272.646 19.7106 272.646 19.8579C272.646 20.009 272.592 20.1378 272.484 20.2421C272.376 20.3462 272.247 20.3974 272.098 20.3974C271.948 20.3974 271.819 20.3462 271.712 20.2421C271.604 20.1378 271.549 20.009 271.549 19.8579C271.549 19.7106 271.604 19.5839 271.712 19.4816C271.819 19.3774 271.948 19.3264 272.098 19.3264ZM277.295 20.8758C278.219 20.8758 279.008 21.1985 279.658 21.8405C280.31 22.4822 280.634 23.259 280.634 24.1707C280.634 25.0761 280.31 25.8508 279.658 26.4928C279.008 27.1366 278.219 27.4575 277.295 27.4575C276.374 27.4575 275.587 27.1366 274.933 26.4928C274.281 25.8508 273.955 25.0761 273.955 24.1707C273.955 23.259 274.281 22.4822 274.933 21.8405C275.587 21.1985 276.374 20.8758 277.295 20.8758ZM277.295 21.4521C276.532 21.4521 275.88 21.7158 275.342 22.2473C274.802 22.7788 274.532 23.4184 274.532 24.1707C274.532 24.9208 274.802 25.5605 275.342 26.0901C275.88 26.6175 276.532 26.8832 277.295 26.8832C278.057 26.8832 278.709 26.6175 279.249 26.0901C279.787 25.5605 280.057 24.9208 280.057 24.1707C280.057 23.4184 279.787 22.7788 279.249 22.2473C278.709 21.7158 278.057 21.4521 277.295 21.4521ZM222.831 14.2911C223.19 14.2888 223.533 14.2442 223.861 14.1554C224.189 14.0664 224.493 13.9401 224.772 13.7786C225.05 13.6148 225.292 13.4228 225.499 13.2006C225.706 12.9783 225.868 12.7348 225.984 12.4658L225.143 12.2411C225.024 12.5056 224.85 12.7348 224.617 12.9339C224.384 13.1304 224.118 13.2849 223.813 13.3925C223.509 13.5025 223.19 13.5587 222.86 13.561C222.501 13.5587 222.163 13.4907 221.847 13.3574C221.528 13.2217 221.245 13.0321 220.998 12.7887C220.751 12.5453 220.549 12.2574 220.397 11.9252C220.244 11.5952 220.152 11.2327 220.121 10.837H226.469C226.477 10.8044 226.484 10.7528 226.489 10.678C226.496 10.6054 226.498 10.5306 226.498 10.4579C226.493 9.95246 226.4 9.47507 226.222 9.02577C226.044 8.57667 225.792 8.1763 225.466 7.83002C225.14 7.48375 224.753 7.20996 224.306 7.01339C223.856 6.81454 223.362 6.71378 222.817 6.70924C222.275 6.71151 221.778 6.81207 221.326 7.00864C220.875 7.20521 220.48 7.47673 220.147 7.82073C219.814 8.16701 219.555 8.56717 219.372 9.01875C219.189 9.47053 219.096 9.95494 219.093 10.472C219.096 10.9962 219.189 11.4852 219.372 11.9463C219.557 12.4049 219.814 12.8098 220.149 13.1608C220.485 13.5118 220.877 13.7879 221.333 13.9869C221.787 14.1858 222.287 14.2863 222.831 14.2911ZM220.092 10.1069C220.118 9.71851 220.206 9.36275 220.356 9.03981C220.504 8.71687 220.701 8.43853 220.946 8.19983C221.191 7.96341 221.474 7.78088 221.792 7.64977C222.108 7.52113 222.451 7.45567 222.817 7.4534C223.183 7.45567 223.526 7.51886 223.842 7.64749C224.161 7.77613 224.443 7.95866 224.691 8.19509C224.938 8.43151 225.138 8.71232 225.29 9.03526C225.442 9.3582 225.537 9.71624 225.571 10.1069H220.092ZM272.154 14.2911C272.513 14.2888 272.856 14.2442 273.184 14.1554C273.512 14.0664 273.816 13.9401 274.094 13.7786C274.373 13.6148 274.615 13.4228 274.822 13.2006C275.029 12.9783 275.191 12.7348 275.307 12.4658L274.465 12.2411C274.347 12.5056 274.173 12.7348 273.94 12.9339C273.707 13.1304 273.441 13.2849 273.136 13.3925C272.832 13.5025 272.513 13.5587 272.183 13.561C271.824 13.5587 271.486 13.4907 271.17 13.3574C270.851 13.2217 270.568 13.0321 270.321 12.7887C270.074 12.5453 269.871 12.2574 269.719 11.9252C269.567 11.5952 269.475 11.2327 269.443 10.837H275.792C275.799 10.8044 275.806 10.7528 275.811 10.678C275.818 10.6054 275.821 10.5306 275.821 10.4579C275.816 9.95246 275.723 9.47507 275.545 9.02577C275.367 8.57667 275.114 8.1763 274.789 7.83002C274.463 7.48375 274.075 7.20996 273.628 7.01339C273.179 6.81454 272.684 6.71378 272.14 6.70924C271.598 6.71151 271.101 6.81207 270.649 7.00864C270.197 7.20521 269.802 7.47673 269.47 7.82073C269.137 8.16701 268.878 8.56717 268.694 9.01875C268.511 9.47053 268.419 9.95494 268.416 10.472C268.419 10.9962 268.511 11.4852 268.694 11.9463C268.88 12.4049 269.137 12.8098 269.472 13.1608C269.807 13.5118 270.2 13.7879 270.656 13.9869C271.11 14.1858 271.61 14.2863 272.154 14.2911ZM269.415 10.1069C269.441 9.71851 269.529 9.36275 269.679 9.03981C269.826 8.71687 270.024 8.43853 270.269 8.19983C270.513 7.96341 270.797 7.78088 271.115 7.64977C271.431 7.52113 271.774 7.45567 272.14 7.4534C272.506 7.45567 272.848 7.51886 273.165 7.64749C273.483 7.77613 273.766 7.95866 274.014 8.19509C274.261 8.43151 274.461 8.71232 274.613 9.03526C274.765 9.3582 274.86 9.71624 274.893 10.1069H269.415ZM232.072 14.2975C231.881 14.3309 231.682 14.3483 231.477 14.3493C231.278 14.3483 231.082 14.3299 230.892 14.2946C230.7 14.2591 230.513 14.2066 230.331 14.1372C230.149 14.067 229.975 13.9844 229.81 13.8886C229.644 13.7926 229.488 13.6838 229.339 13.5614C229.192 13.4404 229.057 13.3092 228.933 13.1686C228.854 13.0786 228.78 12.9849 228.712 12.8876V14.1507V14.2091H228.652H228.01H227.951V14.1507V3.90106V3.84242H228.01H228.724H228.783V3.90106V8.25062C228.868 8.13581 228.956 8.02576 229.048 7.92045C229.18 7.77013 229.319 7.62931 229.466 7.49882C229.614 7.36852 229.769 7.25248 229.931 7.1511C230.093 7.04971 230.264 6.96196 230.444 6.88928C230.623 6.81536 230.811 6.75961 231.007 6.72223C231.202 6.68507 231.406 6.66607 231.619 6.66483C231.835 6.66607 232.042 6.68507 232.239 6.72161C232.437 6.75837 232.626 6.81267 232.807 6.88432C232.986 6.95556 233.156 7.04084 233.316 7.13995C233.475 7.23865 233.625 7.35139 233.766 7.47796C233.907 7.6035 234.038 7.73895 234.157 7.88411C234.275 8.02824 234.383 8.18248 234.479 8.34601C234.577 8.51017 234.663 8.67948 234.736 8.85334C234.81 9.02802 234.872 9.20849 234.923 9.39453C235.024 9.76682 235.075 10.1441 235.075 10.5281C235.074 10.7342 235.058 10.9365 235.028 11.1337C234.999 11.3289 234.955 11.5205 234.896 11.7084C234.837 11.8969 234.765 12.0788 234.681 12.2537C234.598 12.4267 234.502 12.5934 234.394 12.753C234.287 12.9115 234.169 13.0615 234.04 13.2015C233.911 13.3412 233.772 13.4711 233.624 13.5898C233.474 13.709 233.316 13.8151 233.151 13.9076C232.987 14.0003 232.813 14.08 232.632 14.1467C232.452 14.2136 232.265 14.2638 232.072 14.2975ZM231.02 13.5768C231.127 13.5927 231.231 13.6006 231.334 13.6006C231.504 13.5993 231.668 13.5849 231.827 13.5562C231.984 13.5277 232.137 13.4852 232.283 13.4292C232.43 13.3741 232.57 13.3078 232.703 13.231C232.836 13.154 232.962 13.0654 233.082 12.9665C233.2 12.867 233.311 12.7598 233.414 12.645C233.516 12.5304 233.611 12.4081 233.696 12.2774C233.781 12.1474 233.856 12.0127 233.922 11.8736C233.988 11.734 234.044 11.5894 234.091 11.4404C234.136 11.2913 234.171 11.1403 234.194 10.9882C234.216 10.8368 234.228 10.6832 234.228 10.5281C234.227 10.3249 234.21 10.1257 234.176 9.93056C234.142 9.73544 234.091 9.54465 234.025 9.35861C233.958 9.17277 233.878 8.99685 233.783 8.83063C233.688 8.66524 233.579 8.50955 233.455 8.36377C233.333 8.21717 233.199 8.08606 233.053 7.97084C232.908 7.85624 232.751 7.75651 232.582 7.67164C232.414 7.58699 232.236 7.52298 232.049 7.48003C231.862 7.43687 231.666 7.41437 231.463 7.41333C231.307 7.41437 231.157 7.42758 231.011 7.45339C230.866 7.47899 230.725 7.5174 230.59 7.56861C230.454 7.61899 230.324 7.67908 230.2 7.74804C230.075 7.81783 229.956 7.89712 229.842 7.9857C229.728 8.0747 229.619 8.16989 229.517 8.27086C229.416 8.37141 229.32 8.4792 229.229 8.5938C229.142 8.70633 229.06 8.82278 228.985 8.94296C228.911 9.06168 228.844 9.18268 228.783 9.30554V11.7047C228.796 11.8079 228.819 11.9085 228.853 12.0063C228.888 12.1052 228.934 12.2017 228.991 12.2952C229.047 12.3892 229.113 12.4806 229.186 12.568C229.261 12.6559 229.343 12.7396 229.431 12.8178C229.521 12.8981 229.616 12.9731 229.715 13.0421C229.814 13.111 229.918 13.1748 230.026 13.2333C230.136 13.2915 230.247 13.3439 230.36 13.3898C230.47 13.4346 230.58 13.4734 230.69 13.5048C230.802 13.5364 230.911 13.5605 231.02 13.5768ZM247.631 9.00119C247.669 9.29337 247.688 9.61073 247.686 9.95246L247.687 14.1507V14.2091H247.627H246.914H246.854V14.1507V10.0788C246.854 9.62394 246.818 9.2277 246.746 8.89092C246.675 8.55704 246.567 8.28159 246.424 8.06541C246.283 7.85211 246.106 7.69209 245.894 7.58595C245.681 7.4792 245.431 7.42634 245.145 7.42738C244.942 7.42841 244.748 7.45298 244.561 7.50047C244.375 7.54817 244.197 7.61899 244.028 7.71253C243.858 7.80648 243.699 7.9188 243.553 8.04868C243.407 8.17897 243.272 8.32826 243.148 8.49613C243.024 8.66256 242.916 8.84323 242.823 9.0365C242.732 9.22791 242.655 9.43273 242.593 9.65099V14.1507V14.2091H242.534H241.82H241.761V14.1507V10.0788C241.762 9.61754 241.727 9.21779 241.656 8.87916C241.585 8.54404 241.479 8.26983 241.338 8.05612C241.199 7.84406 241.024 7.68548 240.813 7.58121C240.601 7.47632 240.352 7.42511 240.066 7.42738C239.869 7.42841 239.678 7.45257 239.493 7.49903C239.308 7.54549 239.13 7.61466 238.96 7.70572C238.789 7.79864 238.629 7.9091 238.482 8.03733C238.333 8.16617 238.196 8.31319 238.071 8.47796C237.944 8.64501 237.833 8.82609 237.738 9.02101C237.643 9.21263 237.564 9.41828 237.5 9.63757V14.1507V14.2091H237.441H236.727H236.668V14.1507V6.84966V6.79102H236.727H237.384H237.443V6.84966V8.36586C237.519 8.23991 237.599 8.12056 237.684 8.00761C237.811 7.83789 237.949 7.6822 238.098 7.54034C238.247 7.39849 238.404 7.27377 238.569 7.16599C238.733 7.05821 238.906 6.96694 239.087 6.89178C239.268 6.81642 239.455 6.75943 239.647 6.72164C239.838 6.68385 240.035 6.66465 240.237 6.66465C240.45 6.66589 240.649 6.68819 240.834 6.73093C241.021 6.77388 241.195 6.83768 241.356 6.92193C241.516 7.00741 241.661 7.10941 241.79 7.22814C241.919 7.34646 242.033 7.48191 242.132 7.63491C242.229 7.78523 242.309 7.94918 242.371 8.12593C242.416 8.25312 242.452 8.38692 242.479 8.52733C242.636 8.25705 242.805 8.01629 242.986 7.80485C243.2 7.55438 243.431 7.34481 243.677 7.1759C243.925 7.00617 244.19 6.87815 244.471 6.79267C244.751 6.7076 245.047 6.66465 245.359 6.66465C245.634 6.66589 245.884 6.69955 246.108 6.765C246.333 6.83108 246.533 6.92977 246.705 7.06089C246.878 7.19221 247.027 7.35286 247.153 7.54199C247.277 7.73031 247.379 7.94691 247.458 8.19159C247.535 8.43607 247.593 8.70613 247.631 9.00119ZM252.188 14.309C251.989 14.3359 251.786 14.3497 251.579 14.3497C251.403 14.3487 251.232 14.3328 251.067 14.3035C250.902 14.2737 250.743 14.2299 250.59 14.1723C250.439 14.1139 250.296 14.0437 250.163 13.9617C250.029 13.8793 249.906 13.7858 249.793 13.6807C249.678 13.5758 249.577 13.4616 249.489 13.3392C249.4 13.2159 249.323 13.084 249.259 12.9438C249.195 12.8032 249.148 12.6559 249.116 12.5033C249.084 12.3499 249.067 12.1899 249.066 12.0237C249.067 11.8608 249.087 11.7045 249.127 11.5554C249.166 11.4063 249.224 11.2636 249.302 11.1269C249.38 10.9923 249.474 10.8657 249.583 10.7489C249.692 10.6324 249.817 10.5248 249.959 10.4265C250.1 10.3287 250.254 10.2413 250.421 10.1653C250.587 10.0894 250.766 10.0245 250.957 9.97104C251.148 9.91797 251.349 9.87812 251.561 9.85128C251.771 9.82485 251.991 9.81122 252.221 9.80998C252.355 9.80998 252.492 9.8139 252.629 9.82216C252.767 9.83063 252.904 9.84302 253.039 9.85933C253.176 9.87564 253.312 9.89526 253.445 9.91797C253.579 9.94069 253.71 9.9667 253.839 9.99623C253.966 10.0251 254.088 10.0573 254.206 10.092C254.297 10.1189 254.386 10.1476 254.473 10.1779V9.54527C254.472 9.32 254.449 9.10918 254.404 8.91343C254.359 8.71872 254.292 8.53867 254.204 8.37452C254.116 8.21036 254.01 8.06479 253.885 7.93822C253.761 7.81226 253.618 7.70469 253.457 7.61672C253.296 7.52711 253.119 7.45918 252.928 7.41355C252.736 7.36771 252.529 7.34438 252.307 7.34314C252.124 7.34314 251.937 7.36172 251.747 7.39847C251.556 7.43523 251.361 7.49056 251.162 7.56428C250.964 7.63675 250.764 7.72678 250.563 7.83353C250.362 7.93987 250.16 8.06314 249.958 8.20314L249.906 8.23948L249.873 8.18476L249.588 7.70737L249.559 7.66009L249.606 7.62953C249.847 7.46971 250.085 7.32992 250.318 7.21037C250.552 7.09019 250.784 6.98943 251.012 6.90911C251.239 6.82775 251.464 6.76684 251.686 6.72617C251.911 6.68508 252.132 6.66463 252.35 6.66463C252.653 6.66587 252.936 6.69643 253.197 6.7559C253.459 6.81557 253.701 6.90457 253.921 7.02288C254.142 7.13996 254.338 7.28305 254.508 7.45175C254.679 7.62044 254.824 7.81474 254.944 8.03423C255.063 8.25414 255.153 8.49489 255.213 8.75651C255.273 9.01668 255.304 9.29852 255.305 9.60123L255.305 13.156C255.305 13.2103 255.311 13.257 255.322 13.2956C255.332 13.3315 255.347 13.3607 255.366 13.3821L255.367 13.383C255.385 13.4044 255.409 13.4205 255.436 13.4313C255.466 13.4428 255.503 13.4486 255.545 13.4486H255.605V13.5071V14.1366V14.1872L255.554 14.1944C255.529 14.1977 255.505 14.2008 255.479 14.2031C255.453 14.2056 255.429 14.2068 255.407 14.2068C255.362 14.2091 255.323 14.2091 255.289 14.2091C255.226 14.2091 255.164 14.2015 255.105 14.187C255.045 14.1723 254.987 14.1509 254.931 14.1236C254.876 14.0955 254.824 14.061 254.778 14.022C254.733 13.983 254.692 13.9384 254.657 13.8888C254.62 13.837 254.593 13.7821 254.574 13.7232C254.555 13.6646 254.546 13.6016 254.544 13.5339L254.544 13.5329V13.0926C254.456 13.1934 254.363 13.2886 254.264 13.3778C254.127 13.5021 253.979 13.6157 253.82 13.7175C253.661 13.8207 253.494 13.9116 253.32 13.9898C253.144 14.0687 252.962 14.135 252.772 14.1882C252.583 14.2415 252.388 14.282 252.188 14.309ZM251.223 13.6117C251.38 13.6499 251.546 13.67 251.722 13.671C251.904 13.671 252.081 13.6594 252.252 13.6369C252.425 13.6142 252.595 13.5801 252.759 13.5351C252.922 13.4903 253.078 13.4362 253.224 13.3726C253.369 13.3092 253.505 13.2364 253.632 13.1542C253.759 13.0734 253.873 12.984 253.974 12.8878C254.076 12.7908 254.165 12.6857 254.24 12.574L254.242 12.5719L254.244 12.569C254.281 12.5242 254.315 12.4794 254.344 12.4342C254.372 12.39 254.396 12.345 254.415 12.2987C254.435 12.2521 254.449 12.2077 254.459 12.1655C254.468 12.1244 254.473 12.0842 254.473 12.0445V10.7939C254.311 10.7363 254.146 10.6851 253.981 10.6405C253.802 10.5923 253.62 10.5513 253.435 10.5178C253.247 10.4848 253.058 10.4596 252.869 10.4429C252.685 10.4267 252.497 10.4183 252.307 10.4183C252.061 10.4193 251.831 10.4365 251.617 10.4703C251.404 10.5038 251.206 10.5537 251.024 10.6202C250.843 10.6865 250.683 10.7658 250.542 10.8581C250.403 10.9496 250.284 11.054 250.184 11.1715C250.085 11.2892 250.01 11.4158 249.96 11.5515C249.91 11.6873 249.885 11.8329 249.884 11.9884C249.885 12.1474 249.906 12.2987 249.947 12.4418C249.988 12.5851 250.049 12.7201 250.129 12.8467C250.21 12.9731 250.305 13.0873 250.415 13.1876C250.523 13.2865 250.645 13.3722 250.782 13.4439C250.92 13.5176 251.068 13.574 251.223 13.6117ZM260.619 14.2799C260.364 14.3249 260.089 14.3483 259.797 14.3493C259.604 14.3493 259.413 14.339 259.224 14.3175C259.036 14.2962 258.849 14.2642 258.666 14.2217C258.484 14.1792 258.306 14.1263 258.132 14.0629C257.959 13.9995 257.791 13.926 257.629 13.842C257.466 13.7577 257.312 13.6629 257.165 13.5581C257.018 13.4527 256.877 13.3363 256.745 13.2097L256.708 13.1742L256.739 13.1333L257.095 12.6559L257.134 12.6039L257.183 12.647C257.378 12.8199 257.578 12.97 257.781 13.0978C257.987 13.2269 258.197 13.3342 258.411 13.4201C258.625 13.504 258.847 13.5669 259.078 13.6084C259.308 13.6501 259.548 13.6708 259.797 13.6708C260.009 13.6708 260.208 13.6559 260.392 13.6266C260.577 13.5971 260.748 13.5529 260.905 13.4945C261.062 13.4364 261.201 13.3654 261.322 13.2814C261.443 13.1984 261.546 13.1023 261.631 12.9941C261.716 12.888 261.781 12.7691 261.824 12.6394C261.868 12.5083 261.891 12.3658 261.892 12.213C261.892 12.1042 261.88 12.0047 261.856 11.9151C261.832 11.8263 261.797 11.7458 261.749 11.6739C261.702 11.6012 261.643 11.5335 261.572 11.4715C261.5 11.4088 261.417 11.3516 261.321 11.3002C261.225 11.2475 261.115 11.1973 260.994 11.1503C260.874 11.103 260.74 11.0578 260.593 11.0148C260.444 10.9714 260.286 10.9283 260.116 10.8851C259.948 10.8422 259.766 10.7984 259.57 10.7536C259.358 10.7053 259.161 10.6572 258.979 10.6093C258.796 10.5614 258.627 10.5131 258.471 10.4647C258.316 10.4166 258.173 10.3642 258.043 10.307C257.912 10.25 257.795 10.1889 257.694 10.1236C257.589 10.058 257.497 9.98342 257.419 9.90063C257.34 9.81721 257.275 9.72532 257.223 9.62539C257.171 9.52483 257.132 9.41271 257.107 9.28882C257.082 9.16575 257.069 9.03133 257.069 8.88556C257.07 8.69972 257.09 8.52504 257.127 8.36274C257.164 8.19735 257.22 8.04435 257.292 7.90414C257.365 7.76498 257.453 7.63696 257.554 7.52133C257.656 7.40549 257.771 7.30122 257.9 7.20933C258.027 7.11765 258.165 7.03733 258.314 6.96898C258.462 6.90043 258.621 6.84406 258.788 6.80008C258.952 6.75507 259.124 6.72141 259.302 6.6987C259.482 6.67599 259.666 6.66463 259.854 6.66463C260.051 6.66587 260.24 6.67722 260.42 6.6989C260.601 6.721 260.776 6.75362 260.944 6.79781C261.112 6.84179 261.27 6.89424 261.419 6.95494C261.568 7.01606 261.708 7.08585 261.839 7.16473C261.969 7.24237 262.088 7.32702 262.195 7.41788C262.302 7.50893 262.398 7.60701 262.483 7.71211L262.516 7.75362L262.477 7.79037L262.078 8.16927L262.033 8.21221L261.992 8.16534C261.912 8.07428 261.824 7.99066 261.728 7.91509C261.631 7.83889 261.526 7.77075 261.412 7.71067C261.297 7.64976 261.178 7.59628 261.053 7.55064C260.928 7.50501 260.798 7.4664 260.661 7.43543C260.524 7.40425 260.385 7.38133 260.243 7.36605C260.103 7.35098 259.958 7.34334 259.811 7.34334C259.674 7.34334 259.541 7.35036 259.414 7.3646C259.288 7.37844 259.167 7.39971 259.05 7.4282C258.934 7.45649 258.824 7.49242 258.721 7.53598C258.618 7.57935 258.523 7.63035 258.434 7.68899C258.347 7.74722 258.269 7.81329 258.201 7.887C258.133 7.96154 258.073 8.04476 258.023 8.13582C257.974 8.22605 257.938 8.32537 257.913 8.43315C257.887 8.54259 257.874 8.66069 257.873 8.78706C257.873 8.88783 257.882 8.9795 257.899 9.06127C257.916 9.1418 257.941 9.21386 257.975 9.27642C258.01 9.34043 258.055 9.39949 258.108 9.45276C258.163 9.50645 258.226 9.55497 258.3 9.59812C258.377 9.64231 258.463 9.68443 258.561 9.72408C258.659 9.76434 258.77 9.80234 258.891 9.83785C259.015 9.8744 259.148 9.91136 259.292 9.94832C259.435 9.98507 259.593 10.0237 259.767 10.0639C259.999 10.1158 260.217 10.1688 260.422 10.2219C260.632 10.276 260.829 10.3309 261.012 10.3859C261.194 10.4412 261.361 10.5011 261.514 10.5651C261.667 10.6289 261.807 10.6974 261.933 10.7703C262.187 10.9202 262.38 11.1054 262.511 11.3247C262.577 11.4362 262.627 11.5607 262.66 11.6972C262.693 11.8329 262.71 11.9813 262.71 12.1428C262.709 12.3675 262.677 12.5777 262.616 12.7726C262.555 12.9679 262.463 13.1486 262.342 13.314C262.222 13.479 262.077 13.6252 261.908 13.7526C261.738 13.88 261.545 13.9886 261.327 14.0782C261.111 14.1674 260.875 14.2347 260.619 14.2799ZM265.154 7.35966V4.55171V4.49307H265.213H265.839H265.898V4.55171V7.35966H267.232H267.292V7.4183V8.0361V8.09453H267.232H265.898V14.1507V14.2091H265.839H265.213H265.154V14.1507V8.09453H263.82H263.761V8.0361V7.4183V7.35966H263.82H265.154ZM280.744 6.77366C280.772 6.77098 280.804 6.76726 280.835 6.76334L280.902 6.75508V6.82136V7.48128V7.53765L280.845 7.53971C280.624 7.54777 280.413 7.57482 280.21 7.62086C280.009 7.66691 279.817 7.73174 279.636 7.81495C279.453 7.89837 279.284 7.99976 279.128 8.11725C278.971 8.23473 278.827 8.36957 278.696 8.52071C278.565 8.67207 278.451 8.83787 278.352 9.01813C278.254 9.19632 278.172 9.38897 278.106 9.59607V14.1507V14.2091H278.046H277.333H277.274V14.1507V6.84966V6.79102H277.333H278.004H278.063V6.84966V8.42347C278.12 8.3258 278.18 8.23185 278.243 8.14183C278.351 7.98903 278.468 7.84676 278.593 7.71524C278.72 7.58433 278.853 7.4656 278.993 7.36009C279.132 7.25499 279.278 7.16248 279.431 7.0836C279.583 7.00328 279.738 6.93927 279.896 6.89096C280.054 6.84243 280.215 6.8094 280.38 6.79143L280.384 6.79102H280.386C280.436 6.79102 280.48 6.7904 280.518 6.78916C280.559 6.78772 280.599 6.78544 280.635 6.78214L280.637 6.78193C280.677 6.77946 280.713 6.77655 280.744 6.77366Z" fill="#808080"/>
<path d="M5.91 2.58V10H4.99V9.16C4.77667 9.45333 4.50667 9.67667 4.18 9.83C3.85333 9.98333 3.49333 10.06 3.1 10.06C2.58667 10.06 2.12667 9.94667 1.72 9.72C1.31333 9.49333 0.993333 9.17667 0.76 8.77C0.533333 8.35667 0.42 7.88333 0.42 7.35C0.42 6.81667 0.533333 6.34667 0.76 5.94C0.993333 5.53333 1.31333 5.21667 1.72 4.99C2.12667 4.76333 2.58667 4.65 3.1 4.65C3.48 4.65 3.83 4.72333 4.15 4.87C4.47 5.01 4.73667 5.22 4.95 5.5V2.58H5.91ZM3.18 9.22C3.51333 9.22 3.81667 9.14333 4.09 8.99C4.36333 8.83 4.57667 8.61 4.73 8.33C4.88333 8.04333 4.96 7.71667 4.96 7.35C4.96 6.98333 4.88333 6.66 4.73 6.38C4.57667 6.09333 4.36333 5.87333 4.09 5.72C3.81667 5.56667 3.51333 5.49 3.18 5.49C2.84 5.49 2.53333 5.56667 2.26 5.72C1.99333 5.87333 1.78 6.09333 1.62 6.38C1.46667 6.66 1.39 6.98333 1.39 7.35C1.39 7.71667 1.46667 8.04333 1.62 8.33C1.78 8.61 1.99333 8.83 2.26 8.99C2.53333 9.14333 2.84 9.22 3.18 9.22ZM12.5164 7.38C12.5164 7.45333 12.5097 7.55 12.4964 7.67H8.19641C8.25641 8.13667 8.45974 8.51333 8.80641 8.8C9.15974 9.08 9.59641 9.22 10.1164 9.22C10.7497 9.22 11.2597 9.00667 11.6464 8.58L12.1764 9.2C11.9364 9.48 11.6364 9.69333 11.2764 9.84C10.9231 9.98667 10.5264 10.06 10.0864 10.06C9.52641 10.06 9.02974 9.94667 8.59641 9.72C8.16307 9.48667 7.82641 9.16333 7.58641 8.75C7.35307 8.33667 7.23641 7.87 7.23641 7.35C7.23641 6.83667 7.34974 6.37333 7.57641 5.96C7.80974 5.54667 8.12641 5.22667 8.52641 5C8.93307 4.76667 9.38974 4.65 9.89641 4.65C10.4031 4.65 10.8531 4.76667 11.2464 5C11.6464 5.22667 11.9564 5.54667 12.1764 5.96C12.4031 6.37333 12.5164 6.84667 12.5164 7.38ZM9.89641 5.46C9.43641 5.46 9.04974 5.6 8.73641 5.88C8.42974 6.16 8.24974 6.52667 8.19641 6.98H11.5964C11.5431 6.53333 11.3597 6.17 11.0464 5.89C10.7397 5.60333 10.3564 5.46 9.89641 5.46ZM18.4418 4.7L16.1218 10H15.1418L12.8218 4.7H13.8218L15.6418 8.95L17.5018 4.7H18.4418ZM23.9813 7.38C23.9813 7.45333 23.9746 7.55 23.9613 7.67H19.6613C19.7213 8.13667 19.9246 8.51333 20.2713 8.8C20.6246 9.08 21.0613 9.22 21.5813 9.22C22.2146 9.22 22.7246 9.00667 23.1113 8.58L23.6413 9.2C23.4013 9.48 23.1013 9.69333 22.7413 9.84C22.3879 9.98667 21.9913 10.06 21.5513 10.06C20.9913 10.06 20.4946 9.94667 20.0613 9.72C19.6279 9.48667 19.2913 9.16333 19.0513 8.75C18.8179 8.33667 18.7013 7.87 18.7013 7.35C18.7013 6.83667 18.8146 6.37333 19.0413 5.96C19.2746 5.54667 19.5913 5.22667 19.9913 5C20.3979 4.76667 20.8546 4.65 21.3613 4.65C21.8679 4.65 22.3179 4.76667 22.7113 5C23.1113 5.22667 23.4213 5.54667 23.6413 5.96C23.8679 6.37333 23.9813 6.84667 23.9813 7.38ZM21.3613 5.46C20.9013 5.46 20.5146 5.6 20.2013 5.88C19.8946 6.16 19.7146 6.52667 19.6613 6.98H23.0613C23.0079 6.53333 22.8246 6.17 22.5113 5.89C22.2046 5.60333 21.8213 5.46 21.3613 5.46ZM25.3143 2.58H26.2743V10H25.3143V2.58ZM30.3773 10.06C29.8506 10.06 29.3773 9.94333 28.9573 9.71C28.5373 9.47667 28.2073 9.15667 27.9673 8.75C27.7339 8.33667 27.6173 7.87 27.6173 7.35C27.6173 6.83 27.7339 6.36667 27.9673 5.96C28.2073 5.54667 28.5373 5.22667 28.9573 5C29.3773 4.76667 29.8506 4.65 30.3773 4.65C30.9039 4.65 31.3739 4.76667 31.7873 5C32.2073 5.22667 32.5339 5.54667 32.7673 5.96C33.0073 6.36667 33.1273 6.83 33.1273 7.35C33.1273 7.87 33.0073 8.33667 32.7673 8.75C32.5339 9.15667 32.2073 9.47667 31.7873 9.71C31.3739 9.94333 30.9039 10.06 30.3773 10.06ZM30.3773 9.22C30.7173 9.22 31.0206 9.14333 31.2873 8.99C31.5606 8.83 31.7739 8.61 31.9273 8.33C32.0806 8.04333 32.1573 7.71667 32.1573 7.35C32.1573 6.98333 32.0806 6.66 31.9273 6.38C31.7739 6.09333 31.5606 5.87333 31.2873 5.72C31.0206 5.56667 30.7173 5.49 30.3773 5.49C30.0373 5.49 29.7306 5.56667 29.4573 5.72C29.1906 5.87333 28.9773 6.09333 28.8173 6.38C28.6639 6.66 28.5873 6.98333 28.5873 7.35C28.5873 7.71667 28.6639 8.04333 28.8173 8.33C28.9773 8.61 29.1906 8.83 29.4573 8.99C29.7306 9.14333 30.0373 9.22 30.3773 9.22ZM37.2649 4.65C37.7783 4.65 38.2383 4.76333 38.6449 4.99C39.0516 5.21667 39.3683 5.53333 39.5949 5.94C39.8283 6.34667 39.9449 6.81667 39.9449 7.35C39.9449 7.88333 39.8283 8.35667 39.5949 8.77C39.3683 9.17667 39.0516 9.49333 38.6449 9.72C38.2383 9.94667 37.7783 10.06 37.2649 10.06C36.8849 10.06 36.5349 9.98667 36.2149 9.84C35.9016 9.69333 35.6349 9.48 35.4149 9.2V11.94H34.4549V4.7H35.3749V5.54C35.5883 5.24667 35.8583 5.02667 36.1849 4.88C36.5116 4.72667 36.8716 4.65 37.2649 4.65ZM37.1849 9.22C37.5249 9.22 37.8283 9.14333 38.0949 8.99C38.3683 8.83 38.5816 8.61 38.7349 8.33C38.8949 8.04333 38.9749 7.71667 38.9749 7.35C38.9749 6.98333 38.8949 6.66 38.7349 6.38C38.5816 6.09333 38.3683 5.87333 38.0949 5.72C37.8283 5.56667 37.5249 5.49 37.1849 5.49C36.8516 5.49 36.5483 5.57 36.2749 5.73C36.0083 5.88333 35.7949 6.1 35.6349 6.38C35.4816 6.66 35.4049 6.98333 35.4049 7.35C35.4049 7.71667 35.4816 8.04333 35.6349 8.33C35.7883 8.61 36.0016 8.83 36.2749 8.99C36.5483 9.14333 36.8516 9.22 37.1849 9.22ZM46.7669 4.65C47.2802 4.65 47.7402 4.76333 48.1469 4.99C48.5535 5.21667 48.8702 5.53333 49.0969 5.94C49.3302 6.34667 49.4469 6.81667 49.4469 7.35C49.4469 7.88333 49.3302 8.35667 49.0969 8.77C48.8702 9.17667 48.5535 9.49333 48.1469 9.72C47.7402 9.94667 47.2802 10.06 46.7669 10.06C46.3735 10.06 46.0135 9.98333 45.6869 9.83C45.3602 9.67667 45.0902 9.45333 44.8769 9.16V10H43.9569V2.58H44.9169V5.5C45.1302 5.22 45.3969 5.01 45.7169 4.87C46.0369 4.72333 46.3869 4.65 46.7669 4.65ZM46.6869 9.22C47.0269 9.22 47.3302 9.14333 47.5969 8.99C47.8702 8.83 48.0835 8.61 48.2369 8.33C48.3969 8.04333 48.4769 7.71667 48.4769 7.35C48.4769 6.98333 48.3969 6.66 48.2369 6.38C48.0835 6.09333 47.8702 5.87333 47.5969 5.72C47.3302 5.56667 47.0269 5.49 46.6869 5.49C46.3535 5.49 46.0502 5.56667 45.7769 5.72C45.5035 5.87333 45.2902 6.09333 45.1369 6.38C44.9835 6.66 44.9069 6.98333 44.9069 7.35C44.9069 7.71667 44.9835 8.04333 45.1369 8.33C45.2902 8.61 45.5035 8.83 45.7769 8.99C46.0502 9.14333 46.3535 9.22 46.6869 9.22ZM55.3168 4.7L52.7468 10.53C52.5201 11.07 52.2535 11.45 51.9468 11.67C51.6468 11.89 51.2835 12 50.8568 12C50.5968 12 50.3435 11.9567 50.0968 11.87C49.8568 11.79 49.6568 11.67 49.4968 11.51L49.9068 10.79C50.1801 11.05 50.4968 11.18 50.8568 11.18C51.0901 11.18 51.2835 11.1167 51.4368 10.99C51.5968 10.87 51.7401 10.66 51.8668 10.36L52.0368 9.99L49.6968 4.7H50.6968L52.5468 8.94L54.3768 4.7H55.3168Z" fill="#808080"/>
</svg>
